<svg width="21" height="10" viewBox="0 0 21 10" fill="none" xmlns="http://www.w3.org/2000/svg">
<path d="M20.1028 4.62C20.0565 4.49725 19.9871 4.3851 19.8985 4.29L17.4669 1.79C17.2838 1.6017 17.0353 1.49591 16.7763 1.49591C16.5173 1.49591 16.2689 1.6017 16.0858 1.79C15.9026 1.9783 15.7997 2.2337 15.7997 2.5C15.7997 2.7663 15.9026 3.0217 16.0858 3.21L16.8639 4H14.3447C14.0868 4 13.8394 4.10536 13.657 4.29289C13.4745 4.48043 13.3721 4.73478 13.3721 5C13.3721 5.26522 13.4745 5.51957 13.657 5.70711C13.8394 5.89464 14.0868 6 14.3447 6H16.8639L16.0858 6.79C15.9946 6.88296 15.9222 6.99356 15.8728 7.11542C15.8235 7.23728 15.798 7.36799 15.798 7.5C15.798 7.63201 15.8235 7.76272 15.8728 7.88458C15.9222 8.00644 15.9946 8.11704 16.0858 8.21C16.1762 8.30373 16.2837 8.37812 16.4023 8.42889C16.5208 8.47966 16.6479 8.5058 16.7763 8.5058C16.9047 8.5058 17.0319 8.47966 17.1504 8.42889C17.2689 8.37812 17.3765 8.30373 17.4669 8.21L19.8985 5.71C19.9871 5.6149 20.0565 5.50275 20.1028 5.38C20.2001 5.13654 20.2001 4.86346 20.1028 4.62ZM6.56356 4H4.04441L4.82253 3.21C5.00568 3.0217 5.10857 2.7663 5.10857 2.5C5.10857 2.2337 5.00568 1.9783 4.82253 1.79C4.63938 1.6017 4.39097 1.49591 4.13195 1.49591C3.87293 1.49591 3.62452 1.6017 3.44137 1.79L1.00976 4.29C0.921211 4.3851 0.851798 4.49725 0.805505 4.62C0.708223 4.86346 0.708223 5.13654 0.805505 5.38C0.851798 5.50275 0.921211 5.6149 1.00976 5.71L3.44137 8.21C3.53179 8.30373 3.63937 8.37812 3.75789 8.42889C3.87642 8.47966 4.00355 8.5058 4.13195 8.5058C4.26035 8.5058 4.38748 8.47966 4.50601 8.42889C4.62453 8.37812 4.73211 8.30373 4.82253 8.21C4.91369 8.11704 4.98605 8.00644 5.03543 7.88458C5.08481 7.76272 5.11023 7.63201 5.11023 7.5C5.11023 7.36799 5.08481 7.23728 5.03543 7.11542C4.98605 6.99356 4.91369 6.88296 4.82253 6.79L4.04441 6H6.56356C6.82152 6 7.06892 5.89464 7.25133 5.70711C7.43373 5.51957 7.53621 5.26522 7.53621 5C7.53621 4.73478 7.43373 4.48043 7.25133 4.29289C7.06892 4.10536 6.82152 4 6.56356 4ZM10.4541 0C10.1962 0 9.94878 0.105357 9.76638 0.292893C9.58397 0.48043 9.48149 0.734784 9.48149 1V9C9.48149 9.26522 9.58397 9.51957 9.76638 9.70711C9.94878 9.89464 10.1962 10 10.4541 10C10.7121 10 10.9595 9.89464 11.1419 9.70711C11.3243 9.51957 11.4268 9.26522 11.4268 9V1C11.4268 0.734784 11.3243 0.48043 11.1419 0.292893C10.9595 0.105357 10.7121 0 10.4541 0Z" fill="#D2D2D2"/>
</svg>
