<svg width="55" height="55" viewBox="0 0 55 55"  xmlns="http://www.w3.org/2000/svg">
<path fill-rule="evenodd" clip-rule="evenodd" d="M27.5 52.7C41.4176 52.7 52.7 41.4176 52.7 27.5C52.7 13.5824 41.4176 2.3 27.5 2.3C13.5824 2.3 2.3 13.5824 2.3 27.5C2.3 41.4176 13.5824 52.7 27.5 52.7ZM55 27.5C55 42.6878 42.6878 55 27.5 55C12.3122 55 0 42.6878 0 27.5C0 12.3122 12.3122 0 27.5 0C42.6878 0 55 12.3122 55 27.5Z" />
<path fill-rule="evenodd" clip-rule="evenodd" d="M27.9996 13.1501C22.5596 13.1501 18.1496 17.5601 18.1496 23.0001C18.1496 28.4401 22.5596 32.8501 27.9996 32.8501C33.4396 32.8501 37.8496 28.4401 37.8496 23.0001C37.8496 17.5601 33.4396 13.1501 27.9996 13.1501ZM15.8496 23.0001C15.8496 16.2898 21.2893 10.8501 27.9996 10.8501C34.7099 10.8501 40.1496 16.2898 40.1496 23.0001C40.1496 29.7104 34.7099 35.1501 27.9996 35.1501C21.2893 35.1501 15.8496 29.7104 15.8496 23.0001Z" />
<path fill-rule="evenodd" clip-rule="evenodd" d="M8.58663 45.2489C11.9813 37.9726 19.281 32.9438 27.8431 32.9438C36.4051 32.9438 43.7049 37.9726 47.0995 45.2489C47.368 45.8244 47.1191 46.5087 46.5436 46.7772C45.968 47.0457 45.2837 46.7968 45.0152 46.2213C41.9812 39.7181 35.4715 35.2438 27.8431 35.2438C20.2146 35.2438 13.7049 39.7181 10.671 46.2213C10.4024 46.7968 9.71815 47.0457 9.14258 46.7772C8.56701 46.5087 8.3181 45.8244 8.58663 45.2489Z" />
<path fill-rule="evenodd" clip-rule="evenodd" d="M36.79 36.6889C37.3903 36.8963 37.7087 37.5511 37.5013 38.1514C36.1509 42.0589 32.3907 44.8506 27.9967 44.9835C27.9852 44.9838 27.9736 44.984 27.962 44.984C23.5754 44.984 19.6583 42.3257 18.2998 38.259C18.0986 37.6566 18.4238 37.0051 19.0262 36.8038C19.6286 36.6026 20.2801 36.9278 20.4813 37.5302C21.502 40.5856 24.4815 42.677 27.9446 42.684C31.4001 42.5724 34.2985 40.3774 35.3274 37.4002C35.5349 36.7999 36.1897 36.4814 36.79 36.6889Z" />
<path fill-rule="evenodd" clip-rule="evenodd" d="M27.9625 42.5654C28.5976 42.5654 29.1125 43.0803 29.1125 43.7154V52.6245C29.1125 53.2597 28.5976 53.7745 27.9625 53.7745C27.3274 53.7745 26.8125 53.2597 26.8125 52.6245V43.7154C26.8125 43.0803 27.3274 42.5654 27.9625 42.5654Z" />
</svg>
