<svg width="30" height="30" viewBox="0 0 30 30" xmlns="http://www.w3.org/2000/svg">
    <g clip-path="url(#clip0)">
        <path fill-rule="evenodd" clip-rule="evenodd"
              d="M0.0354871 2.73713C0.180803 2.20431 0.730544 1.89017 1.26337 2.03549L7.83563 3.82792C8.13819 3.91044 8.38451 4.13011 8.50099 4.42129L9.4445 6.78008H29.0817C29.4004 6.78008 29.6999 6.93193 29.8883 7.18895C30.0767 7.44596 30.1313 7.77735 30.0353 8.08121L26.4504 19.4333C26.3191 19.8493 25.9331 20.1322 25.4969 20.1322H11.1574C10.6845 20.1322 10.2762 19.8009 10.1788 19.3382L7.80678 8.07095L6.82897 5.62643L0.737133 3.96501C0.204309 3.8197 -0.109829 3.26996 0.0354871 2.73713ZM9.99991 8.78008L11.9688 18.1322H24.764L27.7173 8.78008H9.99991Z"
             />
        <circle cx="14.1443" cy="25.1071" r="2.38991" />
        <circle cx="22.5093" cy="25.1071" r="2.38991" />
    </g>
    <defs>
        <clipPath id="clip0">
            <rect width="30" height="30" />
        </clipPath>
    </defs>
</svg>
