<svg width="15" height="18" viewBox="0 0 15 18" id="bell" xmlns="http://www.w3.org/2000/svg">
<path d="M13.125 10.0867V7.21768C13.1237 5.93936 12.6523 4.70274 11.7943 3.72683C10.9364 2.75091 9.74724 2.09867 8.4375 1.88562V0.90221C8.4375 0.662929 8.33873 0.433449 8.16291 0.264251C7.9871 0.095054 7.74864 0 7.5 0C7.25136 0 7.0129 0.095054 6.83709 0.264251C6.66127 0.433449 6.5625 0.662929 6.5625 0.90221V1.88562C5.25276 2.09867 4.06362 2.75091 3.20567 3.72683C2.34773 4.70274 1.87635 5.93936 1.875 7.21768V10.0867C1.32792 10.2729 0.854061 10.6173 0.51838 11.0728C0.182699 11.5283 0.00163079 12.0725 0 12.6309V14.4354C0 14.6746 0.0987722 14.9041 0.274588 15.0733C0.450403 15.2425 0.68886 15.3376 0.9375 15.3376H3.88125C4.09714 16.1021 4.56844 16.777 5.22243 17.2581C5.87643 17.7393 6.67678 18 7.5 18C8.32322 18 9.12357 17.7393 9.77757 17.2581C10.4316 16.777 10.9029 16.1021 11.1187 15.3376H14.0625C14.3111 15.3376 14.5496 15.2425 14.7254 15.0733C14.9012 14.9041 15 14.6746 15 14.4354V12.6309C14.9984 12.0725 14.8173 11.5283 14.4816 11.0728C14.1459 10.6173 13.6721 10.2729 13.125 10.0867ZM3.75 7.21768C3.75 6.26056 4.14509 5.34264 4.84835 4.66585C5.55161 3.98906 6.50544 3.60884 7.5 3.60884C8.49456 3.60884 9.44839 3.98906 10.1517 4.66585C10.8549 5.34264 11.25 6.26056 11.25 7.21768V9.92431H3.75V7.21768ZM7.5 16.2398C7.17279 16.2379 6.85179 16.1536 6.5689 15.9953C6.28602 15.8371 6.0511 15.6103 5.8875 15.3376H9.1125C8.9489 15.6103 8.71398 15.8371 8.4311 15.9953C8.14821 16.1536 7.82721 16.2379 7.5 16.2398ZM13.125 13.5332H1.875V12.6309C1.875 12.3917 1.97377 12.1622 2.14959 11.993C2.3254 11.8238 2.56386 11.7287 2.8125 11.7287H12.1875C12.4361 11.7287 12.6746 11.8238 12.8504 11.993C13.0262 12.1622 13.125 12.3917 13.125 12.6309V13.5332Z"/>
</svg>
