<svg width="12" height="18" viewBox="0 0 12 18" id="bookmark" xmlns="http://www.w3.org/2000/svg">
<path d="M9.42857 0H2.57143C1.88945 0 1.2354 0.284407 0.75316 0.790655C0.270924 1.2969 6.75678e-06 1.98352 6.75678e-06 2.69946V17.0966C-0.000592872 17.2552 0.0387279 17.4111 0.113988 17.5485C0.189248 17.686 0.297774 17.8002 0.428578 17.8794C0.55888 17.9584 0.706689 18 0.857149 18C1.00761 18 1.15542 17.9584 1.28572 17.8794L6 15.018L10.7143 17.8794C10.8449 17.9572 10.9927 17.9975 11.1429 17.9964C11.293 17.9975 11.4408 17.9572 11.5714 17.8794C11.7022 17.8002 11.8108 17.686 11.886 17.5485C11.9613 17.4111 12.0006 17.2552 12 17.0966V2.69946C12 1.98352 11.7291 1.2969 11.2468 0.790655C10.7646 0.284407 10.1106 0 9.42857 0ZM10.2857 15.5399L6.42857 13.2004C6.29827 13.1214 6.15046 13.0798 6 13.0798C5.84954 13.0798 5.70173 13.1214 5.57143 13.2004L1.71429 15.5399V2.69946C1.71429 2.46082 1.8046 2.23194 1.96534 2.06319C2.12609 1.89444 2.3441 1.79964 2.57143 1.79964H9.42857C9.6559 1.79964 9.87391 1.89444 10.0347 2.06319C10.1954 2.23194 10.2857 2.46082 10.2857 2.69946V15.5399Z"/>
</svg>
