<svg width="20" height="20" viewBox="0 0 20 20"  xmlns="http://www.w3.org/2000/svg">
    <path d="M19.4348 16.7653H18.5392C18.5576 16.6854 18.5664 16.6037 18.5653 16.5218V13.3305C18.5653 13.186 18.5368 13.043 18.4815 12.9095C18.4263 12.7761 18.3452 12.6548 18.2431 12.5527C18.1409 12.4505 18.0197 12.3695 17.8862 12.3142C17.7528 12.2589 17.6097 12.2305 17.4653 12.2305H17.3218V11.3827C17.3161 11.13 17.2121 10.8896 17.0318 10.7126C16.8515 10.5356 16.6092 10.4359 16.3566 10.4348H13.5131C13.256 10.4348 13.0093 10.537 12.8275 10.7188C12.6457 10.9006 12.5435 11.1473 12.5435 11.4044V12.2522H12.4609C12.136 11.9743 11.7851 11.7283 11.4131 11.5174C10.8365 11.1901 10.2134 10.9526 9.56528 10.8131C10.4166 10.5165 11.1547 9.96258 11.6774 9.22803C12.2001 8.49348 12.4815 7.61462 12.4827 6.71309C12.4827 6.66527 12.4827 6.61744 12.4827 6.56527C12.4848 6.54358 12.4848 6.52173 12.4827 6.50005C12.4827 5.34693 12.0246 4.24105 11.2092 3.42567C10.3938 2.61029 9.28796 2.15222 8.13484 2.15222C6.98173 2.15222 5.87584 2.61029 5.06046 3.42567C4.24509 4.24105 3.78701 5.34693 3.78701 6.50005V6.56527C3.78701 6.61309 3.78701 6.65657 3.78701 6.7044C3.78062 7.62772 4.06834 8.52912 4.60849 9.27799C5.14865 10.0269 5.91319 10.5843 6.79136 10.8696C5.42859 11.1811 4.20197 11.9222 3.29235 12.9837C2.38272 14.0452 1.83824 15.3709 1.73919 16.7653H0.565276C0.449964 16.7653 0.339376 16.8111 0.257838 16.8926C0.1763 16.9741 0.130493 17.0847 0.130493 17.2C0.130493 17.3154 0.1763 17.4259 0.257838 17.5075C0.339376 17.589 0.449964 17.6348 0.565276 17.6348H19.4348C19.5502 17.6348 19.6607 17.589 19.7423 17.5075C19.8238 17.4259 19.8696 17.3154 19.8696 17.2C19.8696 17.0847 19.8238 16.9741 19.7423 16.8926C19.6607 16.8111 19.5502 16.7653 19.4348 16.7653ZM17.4653 13.1C17.5264 13.1 17.585 13.1243 17.6282 13.1675C17.6714 13.2108 17.6957 13.2694 17.6957 13.3305V14.1261L14.9435 15.1435L12.174 14.1261V13.3305C12.1751 13.269 12.2003 13.2104 12.2443 13.1673C12.2882 13.1242 12.3472 13.1 12.4088 13.1H17.4653ZM13.4131 11.3827C13.4142 11.3565 13.4251 11.3317 13.4436 11.3131C13.4621 11.2946 13.4869 11.2837 13.5131 11.2827H16.3566C16.3823 11.2838 16.4067 11.2948 16.4245 11.3134C16.4423 11.3321 16.4523 11.3569 16.4522 11.3827V12.2305H13.4088L13.4131 11.3827ZM11.5609 12.6087C11.3934 12.8053 11.3009 13.0548 11.3001 13.3131V16.5218C11.2996 16.6008 11.3084 16.6796 11.3261 16.7566H8.69571V14.3914C9.25367 14.3107 9.78026 14.0835 10.2217 13.7329C10.6632 13.3823 11.0038 12.9209 11.2088 12.3957C11.3305 12.4696 11.4479 12.5435 11.5609 12.6087ZM8.26093 13.5609C7.7806 13.5693 7.30972 13.427 6.91437 13.1541C6.51903 12.8811 6.21906 12.4913 6.05658 12.0392C6.05736 12.0247 6.05736 12.0102 6.05658 11.9957C6.75335 11.7009 7.5022 11.5491 8.25875 11.5491C9.01531 11.5491 9.76416 11.7009 10.4609 11.9957V12.0218C10.2983 12.4743 9.99939 12.8652 9.60541 13.1408C9.21144 13.4164 8.74174 13.5632 8.26093 13.5609ZM8.13049 3.23483C8.92916 3.23484 9.7035 3.5097 10.3234 4.01325C10.9434 4.51679 11.3711 5.21834 11.5348 6.00005C10.5392 5.72179 8.58267 5.13048 7.56093 4.52179C7.48013 4.47413 7.38609 4.45389 7.29284 4.46408C7.19959 4.47426 7.11214 4.51434 7.04354 4.57831C6.36259 5.16436 5.58413 5.62644 4.74354 5.94353C4.91802 5.17445 5.34867 4.48749 5.96487 3.99533C6.58106 3.50316 7.34622 3.235 8.13484 3.23483H8.13049ZM4.65223 6.90005C5.64365 6.57087 6.57044 6.07217 7.39136 5.42613C8.74406 6.05494 10.1532 6.55427 11.6001 6.91744C11.6001 7.83993 11.2336 8.72464 10.5813 9.37694C9.929 10.0292 9.04429 10.3957 8.1218 10.3957C7.19931 10.3957 6.3146 10.0292 5.6623 9.37694C5.01 8.72464 4.64354 7.83993 4.64354 6.91744L4.65223 6.90005ZM5.26093 12.4C5.46693 12.9343 5.81456 13.4024 6.26651 13.754C6.71845 14.1056 7.25763 14.3274 7.82615 14.3957V16.7653H2.60875C2.67857 15.8794 2.95629 15.0224 3.41937 14.2639C3.88245 13.5055 4.51784 12.8669 5.27397 12.4H5.26093ZM12.3914 16.7479C12.334 16.7427 12.2804 16.717 12.2404 16.6754C12.2005 16.6339 12.1769 16.5793 12.174 16.5218V15.0435L14.9435 16.087L17.6957 15.0696V16.5218C17.6957 16.5833 17.6716 16.6424 17.6285 16.6863C17.5854 16.7302 17.5268 16.7554 17.4653 16.7566L12.3914 16.7479Z"
    />
</svg>
