<svg width="20" height="20" viewBox="0 0 20 20"  xmlns="http://www.w3.org/2000/svg">
    <path d="M19.4348 18.8043H16.6609V3.58692H17.6001C17.7154 3.58692 17.826 3.54111 17.9075 3.45957C17.989 3.37804 18.0348 3.26745 18.0348 3.15214V0.760832C18.0348 0.645521 17.989 0.534932 17.9075 0.453395C17.826 0.371857 17.7154 0.32605 17.6001 0.32605H2.38267C2.26736 0.32605 2.15677 0.371857 2.07523 0.453395C1.99369 0.534932 1.94788 0.645521 1.94788 0.760832V3.16083C1.94788 3.27614 1.99369 3.38673 2.07523 3.46827C2.15677 3.54981 2.26736 3.59562 2.38267 3.59562H3.33919V18.813H0.565276C0.449964 18.813 0.339376 18.8588 0.257838 18.9403C0.1763 19.0219 0.130493 19.1325 0.130493 19.2478C0.130493 19.3631 0.1763 19.4737 0.257838 19.5552C0.339376 19.6368 0.449964 19.6826 0.565276 19.6826H19.4348C19.5502 19.6826 19.6607 19.6368 19.7423 19.5552C19.8238 19.4737 19.8696 19.3631 19.8696 19.2478C19.8696 19.1325 19.8238 19.0219 19.7423 18.9403C19.6607 18.8588 19.5502 18.813 19.4348 18.813V18.8043ZM2.83484 1.19561H17.1827V2.72605H2.83484V1.19561ZM7.82615 18.8043V14.7174H12.174V18.8043H7.82615ZM13.0435 18.8043V14.2826C13.0435 14.1673 12.9977 14.0567 12.9162 13.9751C12.8347 13.8936 12.7241 13.8478 12.6088 13.8478H7.39136C7.27605 13.8478 7.16546 13.8936 7.08392 13.9751C7.00239 14.0567 6.95658 14.1673 6.95658 14.2826V18.8043H4.20875V3.58692H15.7914V18.8043H13.0435Z"
          />
    <path d="M9.08275 8.99566H6.03927C5.92396 8.99566 5.81337 9.04147 5.73184 9.12301C5.6503 9.20454 5.60449 9.31513 5.60449 9.43044V11.8304C5.60449 11.9458 5.6503 12.0563 5.73184 12.1379C5.81337 12.2194 5.92396 12.2652 6.03927 12.2652H9.10449C9.2198 12.2652 9.33039 12.2194 9.41193 12.1379C9.49347 12.0563 9.53928 11.9458 9.53928 11.8304V9.43044C9.53935 9.37147 9.52742 9.3131 9.50423 9.25888C9.48103 9.20466 9.44705 9.15573 9.40434 9.11506C9.36164 9.07439 9.31111 9.04283 9.25582 9.0223C9.20054 9.00178 9.14165 8.99271 9.08275 8.99566ZM8.64797 11.3957H6.45232V9.86523H8.64797V11.3957Z"
         />
    <path d="M13.9825 8.99561H10.9391C10.8237 8.99561 10.7132 9.04141 10.6316 9.12295C10.5501 9.20449 10.5043 9.31508 10.5043 9.43039V11.8304C10.5043 11.9457 10.5501 12.0563 10.6316 12.1378C10.7132 12.2194 10.8237 12.2652 10.9391 12.2652H13.9825C14.0978 12.2652 14.2084 12.2194 14.29 12.1378C14.3715 12.0563 14.4173 11.9457 14.4173 11.8304V9.43039C14.4173 9.31508 14.3715 9.20449 14.29 9.12295C14.2084 9.04141 14.0978 8.99561 13.9825 8.99561ZM13.5478 11.3956H11.3521V9.86517H13.5478V11.3956Z"
          />
    <path d="M9.08275 4.78265H6.03927C5.92396 4.78265 5.81337 4.82846 5.73184 4.90999C5.6503 4.99153 5.60449 5.10212 5.60449 5.21743V7.61308C5.60449 7.7284 5.6503 7.83898 5.73184 7.92052C5.81337 8.00206 5.92396 8.04787 6.03927 8.04787H9.10449C9.2198 8.04787 9.33039 8.00206 9.41193 7.92052C9.49347 7.83898 9.53928 7.7284 9.53928 7.61308V5.21743C9.53935 5.15846 9.52742 5.10009 9.50423 5.04587C9.48103 4.99165 9.44705 4.94272 9.40434 4.90204C9.36164 4.86137 9.31111 4.82982 9.25582 4.80929C9.20054 4.78876 9.14165 4.7797 9.08275 4.78265ZM8.64797 7.1783H6.45232V5.65221H8.64797V7.1783Z"
         />
    <path d="M13.9825 4.78259H10.9391C10.8237 4.78259 10.7132 4.8284 10.6316 4.90994C10.5501 4.99148 10.5043 5.10206 10.5043 5.21738V7.61303C10.5043 7.72834 10.5501 7.83893 10.6316 7.92046C10.7132 8.002 10.8237 8.04781 10.9391 8.04781H13.9825C14.0978 8.04781 14.2084 8.002 14.29 7.92046C14.3715 7.83893 14.4173 7.72834 14.4173 7.61303V5.21738C14.4173 5.10206 14.3715 4.99148 14.29 4.90994C14.2084 4.8284 14.0978 4.78259 13.9825 4.78259ZM13.5478 7.17825H11.3521V5.65216H13.5478V7.17825Z"
         />
</svg>
