<svg width="20" height="20" viewBox="0 0 20 20" xmlns="http://www.w3.org/2000/svg">
    <path d="M19.4347 16.1087H6.55214C6.55446 16.0638 6.55446 16.0189 6.55214 15.974V10.7131C7.27823 10.7479 8.05214 11.487 8.72605 12.1392C9.08414 12.5075 9.47894 12.8382 9.90431 13.1261H9.92605L9.99562 13.1609C10.1295 13.2416 10.2767 13.2975 10.4304 13.3261C10.5128 13.3472 10.5976 13.3574 10.6826 13.3566H10.7434C10.9286 13.36 11.1126 13.3268 11.2849 13.2589C11.4571 13.1909 11.6143 13.0896 11.7472 12.9607C11.8802 12.8318 11.9863 12.6778 12.0595 12.5078C12.1328 12.3377 12.1716 12.1548 12.1739 11.9696V4.61309C12.1728 4.42604 12.1345 4.24108 12.0614 4.06892C11.9882 3.89677 11.8816 3.74086 11.7477 3.61022C11.6139 3.47958 11.4554 3.37683 11.2815 3.30791C11.1076 3.23899 10.9218 3.20528 10.7347 3.20874H10.6869C10.5945 3.21262 10.5028 3.22573 10.413 3.24787C9.37823 3.43048 8.37823 4.33048 7.56518 5.07395C7.27239 5.37641 6.94389 5.64213 6.58692 5.86526H3.91301C3.6893 5.86526 3.47476 5.95413 3.31658 6.11231C3.1584 6.27049 3.06953 6.48503 3.06953 6.70874V9.86961C3.06953 10.0933 3.1584 10.3079 3.31658 10.466C3.47476 10.6242 3.6893 10.7131 3.91301 10.7131H4.03475V15.974C4.03243 16.0189 4.03243 16.0638 4.03475 16.1087H0.556487C0.441175 16.1087 0.330587 16.1545 0.249049 16.2361C0.167511 16.3176 0.121704 16.4282 0.121704 16.5435C0.121704 16.6588 0.167511 16.7694 0.249049 16.851C0.330587 16.9325 0.441175 16.9783 0.556487 16.9783H19.4347C19.5501 16.9783 19.6607 16.9325 19.7422 16.851C19.8237 16.7694 19.8695 16.6588 19.8695 16.5435C19.8695 16.4282 19.8237 16.3176 19.7422 16.2361C19.6607 16.1545 19.5501 16.1087 19.4347 16.1087ZM11.3043 11.9696C11.3043 12.1114 11.248 12.2475 11.1477 12.3478C11.0474 12.448 10.9114 12.5044 10.7695 12.5044H10.7347C10.6795 12.5021 10.6251 12.4903 10.5739 12.4696L10.4739 12.4261C10.3954 12.3825 10.3291 12.3198 10.2813 12.2438C10.2334 12.1678 10.2054 12.081 10.2 11.9913V4.61309C10.201 4.5402 10.2168 4.46828 10.2462 4.4016C10.2757 4.33492 10.3182 4.27484 10.3714 4.22495C10.4245 4.17505 10.4871 4.13636 10.5556 4.11116C10.624 4.08597 10.6967 4.0748 10.7695 4.0783C10.9114 4.0783 11.0474 4.13465 11.1477 4.23494C11.248 4.33523 11.3043 4.47125 11.3043 4.61309V11.9696ZM8.13475 5.72178C8.5096 5.36791 8.9029 5.03411 9.31301 4.72178V11.4783C8.62605 10.8218 7.86518 10.1044 6.99127 9.90004V6.63048C7.40752 6.37457 7.79144 6.06948 8.13475 5.72178ZM3.91301 6.73917H6.12605V9.84352H4.46518C4.43242 9.84615 4.40021 9.85347 4.36953 9.86526H3.93475L3.91301 6.73917ZM5.0391 16.1087C5.00335 16.1087 4.96907 16.0945 4.94379 16.0693C4.91851 16.044 4.90431 16.0097 4.90431 15.974V10.7131H5.69562V15.974C5.69562 16.0097 5.68142 16.044 5.65614 16.0693C5.63086 16.0945 5.59658 16.1087 5.56084 16.1087H5.0391Z"
    />
    <path d="M15.0651 5.7131C15.1223 5.71343 15.1791 5.70246 15.232 5.68083C15.285 5.65919 15.3332 5.62731 15.3738 5.58701L17.1955 3.76092C17.2668 3.67775 17.304 3.57076 17.2998 3.46134C17.2955 3.35191 17.2502 3.24811 17.1727 3.17068C17.0953 3.09325 16.9915 3.04789 16.8821 3.04366C16.7727 3.03943 16.6657 3.07665 16.5825 3.14788L14.7564 4.96962C14.7157 5.01004 14.6833 5.05813 14.6612 5.11111C14.6392 5.16409 14.6278 5.22092 14.6278 5.27832C14.6278 5.33571 14.6392 5.39254 14.6612 5.44552C14.6833 5.49851 14.7157 5.54659 14.7564 5.58701C14.797 5.62731 14.8452 5.65919 14.8982 5.68083C14.9512 5.70246 15.0079 5.71343 15.0651 5.7131Z"
    />
    <path d="M15.5132 7.18698C15.5132 7.30229 15.559 7.41288 15.6405 7.49442C15.7221 7.57595 15.8327 7.62176 15.948 7.62176H18.5262C18.6415 7.62176 18.7521 7.57595 18.8337 7.49442C18.9152 7.41288 18.961 7.30229 18.961 7.18698C18.961 7.07167 18.9152 6.96108 18.8337 6.87954C18.7521 6.798 18.6415 6.7522 18.5262 6.7522H15.948C15.8327 6.7522 15.7221 6.798 15.6405 6.87954C15.559 6.96108 15.5132 7.07167 15.5132 7.18698Z"
    />
    <path d="M14.9173 8.84784C14.8766 8.88826 14.8442 8.93635 14.8221 8.98933C14.8001 9.04231 14.7887 9.09914 14.7887 9.15654C14.7887 9.21393 14.8001 9.27076 14.8221 9.32374C14.8442 9.37673 14.8766 9.42481 14.9173 9.46523L16.739 11.3044C16.7795 11.3451 16.8276 11.3775 16.8805 11.3995C16.9335 11.4216 16.9903 11.433 17.0477 11.433C17.1051 11.433 17.162 11.4216 17.2149 11.3995C17.2679 11.3775 17.316 11.3451 17.3564 11.3044C17.4374 11.2229 17.4829 11.1127 17.4829 10.9978C17.4829 10.883 17.4374 10.7728 17.3564 10.6913L15.5303 8.86523C15.4512 8.7819 15.3423 8.73329 15.2274 8.73003C15.1125 8.72677 15.001 8.76913 14.9173 8.84784Z"
    />
</svg>
