<svg width="19" height="16" viewBox="0 0 19 16" fill="none" xmlns="http://www.w3.org/2000/svg">
<rect x="0.5" y="0.5" width="15" height="15" rx="1.5" fill="white" stroke="#C4C4C4"/>
<path d="M17.7319 0.295798C17.639 0.20207 17.5284 0.127675 17.4065 0.0769067C17.2846 0.026138 17.1539 0 17.0219 0C16.8899 0 16.7592 0.026138 16.6373 0.0769067C16.5155 0.127675 16.4049 0.20207 16.3119 0.295798L8.86192 7.7558L5.73192 4.6158C5.6354 4.52256 5.52146 4.44925 5.3966 4.40004C5.27175 4.35084 5.13843 4.32671 5.00424 4.32903C4.87006 4.33135 4.73765 4.36008 4.61458 4.41357C4.4915 4.46706 4.38016 4.54428 4.28692 4.6408C4.19368 4.73732 4.12037 4.85126 4.07117 4.97612C4.02196 5.10097 3.99783 5.2343 4.00015 5.36848C4.00247 5.50266 4.0312 5.63507 4.0847 5.75814C4.13819 5.88122 4.2154 5.99256 4.31192 6.0858L8.15192 9.9258C8.24489 10.0195 8.35549 10.0939 8.47735 10.1447C8.59921 10.1955 8.72991 10.2216 8.86192 10.2216C8.99393 10.2216 9.12464 10.1955 9.2465 10.1447C9.36836 10.0939 9.47896 10.0195 9.57192 9.9258L17.7319 1.7658C17.8334 1.67216 17.9144 1.5585 17.9698 1.432C18.0252 1.30551 18.0539 1.1689 18.0539 1.0308C18.0539 0.892697 18.0252 0.756091 17.9698 0.629592C17.9144 0.503092 17.8334 0.389441 17.7319 0.295798Z" fill="#79B256"/>
</svg>
