<svg width="33" height="33" viewBox="0 0 33 33" xmlns="http://www.w3.org/2000/svg">
<path d="M16.5 2.75C8.91825 2.75 2.75 8.91825 2.75 16.5C2.75 24.0817 8.91825 30.25 16.5 30.25C24.0817 30.25 30.25 24.0817 30.25 16.5C30.25 8.91825 24.0817 2.75 16.5 2.75ZM16.5 27.5C10.4349 27.5 5.5 22.5651 5.5 16.5C5.5 10.4349 10.4349 5.5 16.5 5.5C22.5651 5.5 27.5 10.4349 27.5 16.5C27.5 22.5651 22.5651 27.5 16.5 27.5Z" />
<path d="M15.125 15.125H17.875V23.375H15.125V15.125ZM15.125 9.625H17.875V12.375H15.125V9.625Z" />
</svg>
