<svg width="8" height="13" viewBox="0 0 8 13"  xmlns="http://www.w3.org/2000/svg">
    <path d="M4 13C1.79414 13 0 11.1778 0 8.9375V3.25C0 2.95047 0.238965 2.70837 0.533301 2.70837C0.827734 2.70837 1.0667 2.95047 1.0667 3.25V8.9375C1.0667 10.5799 2.38242 11.9166 4 11.9166C5.61758 11.9166 6.9333 10.5799 6.9333 8.9375V2.97913C6.9333 1.93375 6.096 1.08337 5.0667 1.08337C4.0373 1.08337 3.2 1.93375 3.2 2.97913V8.39587C3.2 8.84377 3.55889 9.20837 4 9.20837C4.44111 9.20837 4.8 8.84377 4.8 8.39587V3.25C4.8 2.95047 5.03896 2.70837 5.3333 2.70837C5.62773 2.70837 5.8667 2.95047 5.8667 3.25V8.39587C5.8667 9.44125 5.0293 10.2916 4 10.2916C2.9707 10.2916 2.1333 9.44125 2.1333 8.39587V2.97913C2.1333 1.33688 3.44902 0 5.0667 0C6.68428 0 8 1.33688 8 2.97913V8.9375C8 11.1778 6.20586 13 4 13Z"
          />
</svg>
