<svg width="28" height="28" viewBox="0 0 28 28" xmlns="http://www.w3.org/2000/svg">
<g clip-path="url(#clip0)">
    <path d="M14 8.74997C13.3105 8.74997 12.6279 8.88576 11.9909 9.1496C11.3539 9.41344 10.7752 9.80015 10.2877 10.2877C9.80018 10.7752 9.41347 11.3539 9.14963 11.9909C8.88579 12.6278 8.75 13.3105 8.75 14C8.75 14.6894 8.88579 15.3721 9.14963 16.009C9.41347 16.646 9.80018 17.2248 10.2877 17.7123C10.7752 18.1998 11.3539 18.5865 11.9909 18.8503C12.6279 19.1141 13.3105 19.2499 14 19.2499C15.3924 19.2499 16.7277 18.6968 17.7123 17.7123C18.6969 16.7277 19.25 15.3923 19.25 14C19.25 12.6076 18.6969 11.2722 17.7123 10.2877C16.7277 9.30309 15.3924 8.74997 14 8.74997ZM10.5 14C10.5 13.5403 10.5905 13.0852 10.7664 12.6606C10.9423 12.2359 11.2001 11.8501 11.5251 11.5251C11.8501 11.2001 12.236 10.9423 12.6606 10.7664C13.0852 10.5905 13.5404 10.5 14 10.5C14.4596 10.5 14.9147 10.5905 15.3394 10.7664C15.764 10.9423 16.1498 11.2001 16.4749 11.5251C16.7999 11.8501 17.0577 12.2359 17.2336 12.6606C17.4094 13.0852 17.5 13.5403 17.5 14C17.5 14.9282 17.1312 15.8184 16.4749 16.4748C15.8185 17.1312 14.9282 17.4999 14 17.4999C13.0717 17.4999 12.1815 17.1312 11.5251 16.4748C10.8687 15.8184 10.5 14.9282 10.5 14Z"
          />
    <path d="M22.9941 23.7941L20.9781 22.9086C20.6912 22.7839 20.3791 22.7281 20.0667 22.7455C19.7544 22.7629 19.4504 22.8531 19.1791 23.0089C18.6343 23.3239 18.2866 23.8804 18.2178 24.5069L17.9751 26.7003C17.9507 26.9207 17.8588 27.1282 17.712 27.2944C17.5652 27.4606 17.3706 27.5774 17.155 27.6289C15.0794 28.1237 12.9166 28.1237 10.841 27.6289C10.6255 27.5772 10.4312 27.4603 10.2846 27.2941C10.1381 27.1279 10.0463 26.9205 10.022 26.7003L9.77931 24.5104C9.74446 24.2023 9.63787 23.9065 9.46809 23.647C9.2983 23.3875 9.07005 23.1713 8.80164 23.0159C8.53351 22.8609 8.23269 22.771 7.92344 22.7536C7.61419 22.7361 7.30517 22.7917 7.02132 22.9156L5.00532 23.8011C4.80152 23.8906 4.57493 23.9146 4.35692 23.8696C4.13891 23.8247 3.94027 23.7131 3.78849 23.5503C2.33747 21.9953 1.25771 20.1318 0.630332 18.0996C0.564364 17.886 0.566429 17.6572 0.636242 17.4448C0.706055 17.2325 0.840162 17.0471 1.02 16.9143L2.80149 15.5983C3.05229 15.414 3.25621 15.1733 3.39676 14.8957C3.53731 14.618 3.61054 14.3112 3.61054 14C3.61054 13.6888 3.53731 13.3819 3.39676 13.1042C3.25621 12.8266 3.05229 12.5859 2.80149 12.4016L1.02 11.0891C0.83993 10.9563 0.705673 10.7707 0.63585 10.5581C0.566027 10.3455 0.564098 10.1164 0.630332 9.90264C1.25901 7.87226 2.33956 6.01072 3.79082 4.45782C3.94274 4.29519 4.14145 4.1838 4.35945 4.13908C4.57746 4.09435 4.80397 4.11849 5.00765 4.20816L7.01431 5.09132C7.29984 5.21421 7.61016 5.26855 7.92045 5.25C8.23074 5.23145 8.53238 5.14052 8.80123 4.9845C9.07007 4.82847 9.29867 4.61168 9.46871 4.35147C9.63875 4.09126 9.74552 3.79486 9.78047 3.48599L10.0255 1.295C10.0501 1.07211 10.1438 0.86248 10.2933 0.69537C10.4429 0.528261 10.6408 0.412007 10.8596 0.362833C11.8875 0.134166 12.9363 0.0128333 14.0143 0C15.0666 0.0116666 16.1143 0.134166 17.141 0.362833C17.36 0.411914 17.5582 0.528292 17.7078 0.695662C17.8574 0.863031 17.9508 1.07301 17.9751 1.29616L18.219 3.48716C18.2715 3.97305 18.5016 4.42245 18.865 4.74925C19.2283 5.07604 19.6996 5.25725 20.1883 5.25815C20.4601 5.25815 20.7296 5.20099 20.9816 5.09015L22.9883 4.20699C23.192 4.11732 23.4185 4.09318 23.6365 4.13791C23.8545 4.18264 24.0532 4.29403 24.2051 4.45666C25.656 6.00962 26.7362 7.87117 27.3644 9.90147C27.4305 10.1149 27.4286 10.3437 27.359 10.556C27.2894 10.7684 27.1556 10.9539 26.9759 11.0868L25.1968 12.4016C24.6893 12.775 24.3824 13.3688 24.3824 14C24.3824 14.63 24.6893 15.2238 25.1979 15.5983L26.9783 16.912C27.3469 17.185 27.5033 17.661 27.3679 18.0985C26.7397 20.1285 25.66 21.99 24.2098 23.5433C24.058 23.7061 23.8593 23.8177 23.6413 23.8626C23.4233 23.9076 23.1967 23.8836 22.9929 23.7941H22.9941ZM16.6393 23.5631C16.9177 22.6913 17.5102 21.954 18.3018 21.4946C18.811 21.2012 19.382 21.0314 19.9688 20.9987C20.5556 20.9661 21.1418 21.0716 21.6804 21.3068L23.2484 21.9951C24.2556 20.8289 25.0352 19.4843 25.5468 18.0308L24.1596 17.0076V17.0065C23.6873 16.6597 23.3031 16.2069 23.0378 15.6845C22.7726 15.1621 22.6337 14.5847 22.6324 13.9988C22.6324 12.8006 23.2123 11.6888 24.1573 10.9935L24.1596 10.9923L25.5444 9.96914C25.0325 8.51592 24.2525 7.17163 23.2449 6.00598L21.6898 6.68965L21.6874 6.69082C21.2138 6.90082 20.7039 7.00815 20.1871 7.00815C19.268 7.00677 18.3817 6.66661 17.6977 6.05275C17.0136 5.43889 16.5799 4.59441 16.4795 3.68082V3.67849L16.2893 1.97516C15.5388 1.83538 14.7777 1.76005 14.0143 1.75C13.228 1.7605 12.4626 1.83633 11.7101 1.97516L11.52 3.67966C11.4546 4.26131 11.2536 4.81951 10.9333 5.30938C10.6129 5.79926 10.1821 6.20713 9.67544 6.50023C9.16879 6.79333 8.60044 6.96347 8.01608 6.99697C7.43172 7.03048 6.84765 6.92642 6.31082 6.69315L4.75215 6.00715C3.74454 7.17276 2.96455 8.51707 2.45266 9.97031L3.84099 10.9935C4.31227 11.3405 4.69537 11.7935 4.95941 12.3158C5.22344 12.8382 5.361 13.4153 5.361 14.0005C5.361 14.5858 5.22344 15.1629 4.95941 15.6853C4.69537 16.2076 4.31227 16.6606 3.84099 17.0076L2.45266 18.032C2.96358 19.4875 3.74319 20.8342 4.75099 22.0021L6.32015 21.3138C6.85528 21.0795 7.43798 20.9744 8.02123 21.0068C8.60448 21.0392 9.17194 21.2083 9.67781 21.5004C10.1835 21.7926 10.6135 22.1992 10.9335 22.6877C11.2534 23.1763 11.4543 23.733 11.52 24.3133V24.3191L11.709 26.0271C13.2221 26.3246 14.7773 26.3246 16.2905 26.0271L16.4795 24.3156C16.5075 24.0589 16.5611 23.8058 16.6405 23.5631H16.6393Z"/>
</g>
<defs>
    <clipPath id="clip0">
        <rect width="28" height="28" fill="white"/>
    </clipPath>
</defs>
</svg>
