<svg width="18" height="18" viewBox="0 0 18 18" id="comment" xmlns="http://www.w3.org/2000/svg">
<path d="M8.82303 0.0900879C7.66763 0.0900879 6.52354 0.317661 5.45609 0.759813C4.38864 1.20197 3.41873 1.85004 2.60174 2.66703C0.951752 4.31702 0.024799 6.55488 0.024799 8.88832C0.0171075 10.9199 0.720556 12.8902 2.0132 14.4576L0.253553 16.2172C0.131471 16.341 0.0487708 16.4981 0.0158882 16.6688C-0.0169945 16.8394 0.00141378 17.016 0.0687901 17.1762C0.141866 17.3346 0.260331 17.4676 0.409147 17.5584C0.557962 17.6493 0.730418 17.6939 0.904622 17.6865H8.82303C11.1565 17.6865 13.3943 16.7596 15.0443 15.1096C16.6943 13.4596 17.6213 11.2218 17.6213 8.88832C17.6213 6.55488 16.6943 4.31702 15.0443 2.66703C13.3943 1.01704 11.1565 0.0900879 8.82303 0.0900879ZM8.82303 15.9269H3.02499L3.84323 15.1087C4.0071 14.9438 4.09908 14.7208 4.09908 14.4884C4.09908 14.2559 4.0071 14.033 3.84323 13.8681C2.69118 12.7173 1.97376 11.2027 1.81321 9.58231C1.65265 7.96191 2.0589 6.33595 2.96273 4.98148C3.86656 3.62701 5.21205 2.62781 6.76997 2.15413C8.3279 1.68044 10.0019 1.76158 11.5067 2.38371C13.0115 3.00584 14.254 4.13048 15.0226 5.56601C15.7912 7.00154 16.0383 8.65916 15.7218 10.2564C15.4053 11.8537 14.5448 13.2919 13.2868 14.3258C12.0289 15.3598 10.4514 15.9256 8.82303 15.9269Z" />
</svg>
