<svg width="20" height="20" viewBox="0 0 20 20"  xmlns="http://www.w3.org/2000/svg">
    <path d="M18.1566 7.71302H12.174C12.1649 7.38413 12.1183 7.05737 12.0349 6.7391H12.6088C12.7241 6.7391 12.8347 6.6933 12.9162 6.61176C12.9978 6.53022 13.0436 6.41963 13.0436 6.30432C13.0487 5.37539 12.8745 4.45421 12.5305 3.59128C11.8305 2.11736 10.4349 1.30432 8.58271 1.30432C7.32619 1.30432 6.37402 1.68693 5.83924 2.3565C5.19621 2.25819 4.53908 2.389 3.98271 2.72606C3.51944 2.99145 3.14557 3.38864 2.90866 3.86711C2.67175 4.34557 2.58251 4.88369 2.65228 5.41302C2.70489 5.8554 2.79804 6.29202 2.93054 6.71736C2.96079 6.80736 3.01967 6.88497 3.09818 6.93836C3.17669 6.99174 3.27051 7.01797 3.36532 7.01302C3.40143 7.01726 3.43791 7.01726 3.47402 7.01302L3.57837 6.95649C3.35661 7.99018 3.52185 9.06931 4.04274 9.98929C4.56363 10.9093 5.40398 11.6061 6.40445 11.9478C5.06044 12.2745 3.85509 13.02 2.96257 14.0767C2.07004 15.1333 1.53657 16.4463 1.43924 17.8261H0.56967C0.454359 17.8261 0.34377 17.8719 0.262233 17.9534C0.180695 18.0349 0.134888 18.1455 0.134888 18.2608C0.134888 18.3762 0.180695 18.4867 0.262233 18.5683C0.34377 18.6498 0.454359 18.6956 0.56967 18.6956H19.4349C19.5502 18.6956 19.6608 18.6498 19.7423 18.5683C19.8239 18.4867 19.8697 18.3762 19.8697 18.2608C19.8697 18.1455 19.8239 18.0349 19.7423 17.9534C19.6608 17.8719 19.5502 17.8261 19.4349 17.8261H15.9566V15.7739H18.1305C18.5828 15.7672 19.0146 15.5845 19.3344 15.2647C19.6542 14.9449 19.8368 14.5131 19.8436 14.0608V9.42606C19.8436 8.97622 19.6667 8.5444 19.3511 8.22389C19.0355 7.90337 18.6064 7.71987 18.1566 7.71302ZM8.58271 2.17389C9.63924 2.17389 11.0436 2.48693 11.7479 3.97823C11.9988 4.5791 12.143 5.21913 12.174 5.86954H8.64793C7.3175 5.86954 6.23489 4.93476 6.23489 3.78693C6.23489 2.32606 7.87837 2.17389 8.58271 2.17389ZM4.42184 3.47823C4.72862 3.29719 5.07868 3.20255 5.43489 3.20432C5.38879 3.39805 5.36544 3.59649 5.36532 3.79563C5.36927 4.3473 5.53893 4.88505 5.85228 5.3391C5.35663 5.5391 4.4001 5.82606 3.64358 6.03476C3.58629 5.79981 3.54274 5.56173 3.51315 5.32171C3.46683 4.95915 3.5283 4.59098 3.68991 4.26314C3.85151 3.9353 4.10607 3.66231 4.42184 3.47823ZM4.34793 7.82606C4.34851 7.4416 4.41166 7.0598 4.53489 6.69563C4.53692 6.68705 4.53692 6.67812 4.53489 6.66954C5.19679 6.49235 5.84489 6.26711 6.47402 5.99563C7.0941 6.48098 7.86052 6.74156 8.64793 6.73476H11.1305C11.2346 7.04945 11.2932 7.3774 11.3045 7.70867H10.8349C10.3813 7.71097 9.94717 7.89306 9.62767 8.21501C9.30816 8.53696 9.12938 8.97248 9.13054 9.42606V11.0565C8.71601 11.2231 8.27295 11.3073 7.82619 11.3043C6.9037 11.3043 6.01899 10.9379 5.36669 10.2856C4.71439 9.63326 4.34793 8.74855 4.34793 7.82606ZM9.13054 12.7478V14.0521C9.12255 14.1505 9.12255 14.2494 9.13054 14.3478C8.77425 14.5704 8.36364 14.6907 7.94358 14.6956C7.46805 14.6966 7.00384 14.5505 6.61463 14.2773C6.22542 14.0041 5.93028 13.6171 5.76967 13.1695C5.75791 13.142 5.74334 13.1158 5.72619 13.0913C6.42318 12.781 7.17634 12.6167 7.93924 12.6087C8.34015 12.6127 8.7395 12.6593 9.13054 12.7478ZM8.40445 15.5087C8.79401 15.4513 9.16976 15.3231 9.51315 15.1304C9.67405 15.3288 9.87667 15.4893 10.1066 15.6005C10.3366 15.7117 10.5882 15.7709 10.8436 15.7739H13.0175V17.8261H8.39576L8.40445 15.5087ZM4.95228 13.4782C5.15167 14.0223 5.49758 14.5008 5.95181 14.8606C6.40603 15.2205 6.95089 15.4477 7.52619 15.5174V17.8261H2.30445C2.375 16.9448 2.65131 16.0923 3.11118 15.3372C3.57104 14.5821 4.20164 13.9454 4.95228 13.4782ZM15.0958 17.8261H13.9131V15.7739H15.1131L15.0958 17.8261ZM19.0088 14.0565C19.0088 14.2802 18.9199 14.4947 18.7618 14.6529C18.6036 14.8111 18.389 14.9 18.1653 14.9H10.8349C10.6134 14.8977 10.4018 14.8084 10.2456 14.6514C10.0894 14.4944 10.0012 14.2823 10.0001 14.0608V9.42606C10.0001 9.31529 10.0219 9.20561 10.0643 9.10327C10.1067 9.00094 10.1688 8.90795 10.2472 8.82963C10.3255 8.75131 10.4185 8.68918 10.5208 8.64679C10.6231 8.6044 10.7328 8.58258 10.8436 8.58258H18.1566C18.3803 8.58258 18.5949 8.67145 18.7531 8.82963C18.9112 8.98781 19.0001 9.20236 19.0001 9.42606L19.0088 14.0565Z"
          />
    <path d="M14.4958 10.1C14.1705 10.1 13.8526 10.1965 13.5823 10.3773C13.3119 10.558 13.1012 10.815 12.977 11.1155C12.8527 11.4161 12.8204 11.7468 12.8842 12.0657C12.948 12.3846 13.1049 12.6774 13.3352 12.9071C13.5655 13.1368 13.8587 13.293 14.1778 13.3559C14.4969 13.4188 14.8275 13.3856 15.1277 13.2606C15.4279 13.1355 15.6843 12.9242 15.8644 12.6534C16.0445 12.3825 16.1401 12.0643 16.1392 11.7391C16.137 11.3043 15.9629 10.8881 15.6551 10.5811C15.3472 10.274 14.9305 10.1011 14.4958 10.1ZM14.4958 12.513C14.3427 12.513 14.1931 12.4676 14.0658 12.3826C13.9385 12.2976 13.8393 12.1767 13.7808 12.0353C13.7222 11.8939 13.7069 11.7382 13.7367 11.5881C13.7666 11.438 13.8403 11.3001 13.9485 11.1919C14.0568 11.0836 14.1947 11.0099 14.3448 10.9801C14.4949 10.9502 14.6505 10.9655 14.7919 11.0241C14.9333 11.0827 15.0542 11.1819 15.1393 11.3091C15.2243 11.4364 15.2697 11.586 15.2697 11.7391C15.2697 11.9444 15.1881 12.1412 15.043 12.2863C14.8979 12.4315 14.701 12.513 14.4958 12.513Z"
          />
</svg>
