<svg width="20" height="20" viewBox="0 0 20 20" xmlns="http://www.w3.org/2000/svg">
    <path d="M19.4348 15.9H16.0435V6.73916H17.0392C17.1545 6.73916 17.2651 6.69336 17.3466 6.61182C17.4282 6.53028 17.474 6.41969 17.474 6.30438V3.66525C17.474 3.54994 17.4282 3.43935 17.3466 3.35781C17.2651 3.27628 17.1545 3.23047 17.0392 3.23047H2.96093C2.84562 3.23047 2.73503 3.27628 2.65349 3.35781C2.57195 3.43935 2.52615 3.54994 2.52615 3.66525V6.30438C2.52615 6.41969 2.57195 6.53028 2.65349 6.61182C2.73503 6.69336 2.84562 6.73916 2.96093 6.73916H3.95658V15.9H0.565276C0.449964 15.9 0.339376 15.9458 0.257838 16.0274C0.1763 16.1089 0.130493 16.2195 0.130493 16.3348C0.130493 16.4501 0.1763 16.5607 0.257838 16.6423C0.339376 16.7238 0.449964 16.7696 0.565276 16.7696H19.4348C19.5502 16.7696 19.6607 16.7238 19.7423 16.6423C19.8238 16.5607 19.8696 16.4501 19.8696 16.3348C19.8696 16.2195 19.8238 16.1089 19.7423 16.0274C19.6607 15.9458 19.5502 15.9 19.4348 15.9ZM16.6044 5.8696H11.8696V4.10003H16.6044V5.8696ZM11.0001 4.10003V5.8696H9.00006V4.10003H11.0001ZM9.00006 6.73916H11.0001V8.62612L10.3392 7.79569C10.2985 7.74491 10.2468 7.70392 10.1881 7.67576C10.1294 7.6476 10.0652 7.63298 10.0001 7.63298C9.93496 7.63298 9.87069 7.6476 9.81199 7.67576C9.75329 7.70392 9.70167 7.74491 9.66093 7.79569L9.00006 8.62612V6.73916ZM3.39571 4.10003H8.13049V5.8696H3.39571V4.10003ZM4.82615 15.9V6.73916H8.13049V9.87395C8.13101 9.96377 8.15934 10.0512 8.21158 10.1243C8.26383 10.1974 8.33742 10.2525 8.42226 10.282C8.50709 10.3116 8.59899 10.3141 8.68532 10.2893C8.77166 10.2645 8.8482 10.2136 8.90441 10.1435L10.0001 8.76525L11.0957 10.1435C11.1362 10.1948 11.1877 10.2362 11.2464 10.2648C11.3051 10.2934 11.3695 10.3084 11.4348 10.3087C11.4838 10.3082 11.5323 10.2994 11.5783 10.2826C11.6632 10.253 11.7367 10.1978 11.7889 10.1246C11.8411 10.0514 11.8693 9.96382 11.8696 9.87395V6.73916H15.174V15.9H4.82615Z"
    />
</svg>
