<svg width="20" height="20" viewBox="0 0 20 20" xmlns="http://www.w3.org/2000/svg">
    <path d="M19.4348 18H14.1957C14.1013 16.5936 13.5538 15.2556 12.6352 14.1865C11.7165 13.1174 10.4762 12.3746 9.10006 12.0696C10.0599 11.7136 10.8634 11.0302 11.3689 10.14C11.8745 9.24972 12.0496 8.20962 11.8635 7.2029C11.6775 6.19617 11.1421 5.2874 10.3518 4.63664C9.56145 3.98589 8.56682 3.6349 7.5431 3.6455C6.51938 3.6561 5.53224 4.02761 4.75555 4.69459C3.97885 5.36157 3.46244 6.28124 3.29726 7.2916C3.13208 8.30196 3.32874 9.33821 3.85259 10.2178C4.37644 11.0974 5.19388 11.7639 6.16093 12.1C4.81357 12.4278 3.60578 13.1766 2.71292 14.2376C1.82005 15.2985 1.2886 16.6164 1.19571 18H0.565276C0.449964 18 0.339376 18.0458 0.257838 18.1273C0.1763 18.2089 0.130493 18.3195 0.130493 18.4348C0.130493 18.5501 0.1763 18.6607 0.257838 18.7422C0.339376 18.8238 0.449964 18.8696 0.565276 18.8696H19.4348C19.5502 18.8696 19.6607 18.8238 19.7423 18.7422C19.8238 18.6607 19.8696 18.5501 19.8696 18.4348C19.8696 18.3195 19.8238 18.2089 19.7423 18.1273C19.6607 18.0458 19.5502 18 19.4348 18ZM7.69571 14.8435C7.22026 14.8467 6.75556 14.702 6.36604 14.4293C5.97653 14.1567 5.68148 13.7696 5.5218 13.3217C5.50845 13.2942 5.49243 13.2679 5.47397 13.2435C6.17553 12.9404 6.9315 12.7836 7.69571 12.7826C8.46008 12.782 9.21638 12.9389 9.91745 13.2435C9.90289 13.2627 9.88981 13.2831 9.87832 13.3043C9.71929 13.7523 9.42612 14.1403 9.0387 14.4157C8.65128 14.6911 8.18842 14.8405 7.7131 14.8435H7.69571ZM7.58702 4.52174C8.40797 4.52245 9.20222 4.81353 9.82923 5.34346C10.4562 5.8734 10.8756 6.60803 11.0131 7.41739C10.0218 7.14783 8.04788 6.54783 7.01745 5.93913C6.93665 5.88986 6.84199 5.8683 6.74783 5.87772C6.65367 5.88713 6.56515 5.92701 6.49571 5.9913C5.80885 6.59355 5.01955 7.06773 4.16528 7.3913C4.30815 6.58746 4.72924 5.8595 5.35482 5.33488C5.98039 4.81025 6.77058 4.52241 7.58702 4.52174ZM4.10875 8.31304C5.09449 7.97996 6.01635 7.48154 6.83484 6.83913C8.18407 7.46905 9.59048 7.96843 11.0348 8.33043C10.9539 9.19287 10.5541 9.99407 9.91358 10.5773C9.27308 11.1605 8.43803 11.4837 7.5718 11.4837C6.70557 11.4837 5.87051 11.1605 5.23002 10.5773C4.58953 9.99407 4.18969 9.19287 4.10875 8.33043V8.31304ZM4.69136 13.6391C4.89043 14.1847 5.23672 14.6644 5.69182 15.0251C6.14693 15.3858 6.69305 15.6134 7.26962 15.6826V18H2.05223C2.12128 17.116 2.39732 16.2607 2.85805 15.5031C3.31878 14.7456 3.95127 14.107 4.70441 13.6391H4.69136ZM8.13919 17.987V15.6783C8.70463 15.5953 9.23753 15.3624 9.68253 15.0038C10.1275 14.6452 10.4684 14.174 10.6696 13.6391C11.4203 14.1063 12.0509 14.743 12.5107 15.4981C12.9706 16.2532 13.2469 17.1057 13.3175 17.987H8.13919Z"
    />
    <path d="M13.5696 6.52178V7.93917C13.5696 8.04376 13.6105 8.14421 13.6837 8.21898C13.7568 8.29375 13.8563 8.33689 13.9609 8.33917C14.0038 8.33866 14.0464 8.33132 14.087 8.31743L16.3174 7.5696C18.2609 7.51743 19.8305 6.08699 19.8305 4.34786C19.8305 2.60873 18.2174 1.17395 16.2305 1.17395C14.2435 1.17395 12.6348 2.60873 12.6348 4.34786C12.6328 4.75502 12.7147 5.15822 12.8756 5.53227C13.0364 5.90631 13.2727 6.24317 13.5696 6.52178ZM16.2305 1.96091C17.7826 1.96091 19.0392 3.04352 19.0392 4.34786C19.0392 5.65221 17.7826 6.74786 16.2305 6.74786C16.2102 6.74583 16.1898 6.74583 16.1696 6.74786C16.1479 6.74574 16.1261 6.74574 16.1044 6.74786L14.3478 7.39134V6.36091C14.3503 6.33342 14.3503 6.30578 14.3478 6.2783C14.3432 6.25577 14.3359 6.23387 14.3261 6.21308C14.3162 6.19189 14.3045 6.17153 14.2913 6.15221C14.2764 6.12863 14.2589 6.10676 14.2392 6.08699C13.9817 5.87657 13.7746 5.61112 13.6331 5.31017C13.4917 5.00922 13.4195 4.68039 13.4218 4.34786C13.4218 3.04352 14.6826 1.96091 16.2305 1.96091Z"
    />
</svg>
