<svg width="22" height="22" viewBox="0 0 22 22"  xmlns="http://www.w3.org/2000/svg">
<circle cx="11" cy="11" r="11" />
<path d="M7.1855 13.6C7.2155 13.6 7.2455 13.597 7.2755 13.5925L9.7985 13.15C9.8285 13.144 9.857 13.1305 9.878 13.108L16.2365 6.7495C16.2504 6.73562 16.2614 6.71914 16.269 6.70099C16.2765 6.68285 16.2804 6.6634 16.2804 6.64375C16.2804 6.6241 16.2765 6.60465 16.269 6.58651C16.2614 6.56836 16.2504 6.55188 16.2365 6.538L13.7435 4.0435C13.715 4.015 13.6775 4 13.637 4C13.5965 4 13.559 4.015 13.5305 4.0435L7.172 10.402C7.1495 10.4245 7.136 10.4515 7.13 10.4815L6.6875 13.0045C6.67291 13.0849 6.67812 13.1676 6.70269 13.2454C6.72726 13.3233 6.77044 13.3941 6.8285 13.4515C6.9275 13.5475 7.052 13.6 7.1855 13.6ZM8.1965 10.984L13.637 5.545L14.7365 6.6445L9.296 12.0835L7.9625 12.319L8.1965 10.984ZM16.52 14.86H5.48C5.2145 14.86 5 15.0745 5 15.34V15.88C5 15.946 5.054 16 5.12 16H16.88C16.946 16 17 15.946 17 15.88V15.34C17 15.0745 16.7855 14.86 16.52 14.86Z" fill="white"/>
</svg>
