<svg width="23" height="22" viewBox="0 0 23 22" xmlns="http://www.w3.org/2000/svg">
    <path d="M4.29815 17.5C4.35479 17.5 4.41143 17.4945 4.46807 17.4863L9.23154 16.6797C9.28819 16.6688 9.34199 16.6441 9.38164 16.6031L21.3866 5.01211C21.4129 4.98681 21.4337 4.95677 21.4479 4.92369C21.4621 4.89061 21.4694 4.85515 21.4694 4.81934C21.4694 4.78353 21.4621 4.74806 21.4479 4.71499C21.4337 4.68191 21.4129 4.65186 21.3866 4.62656L16.6798 0.0792969C16.626 0.0273438 16.5552 0 16.4787 0C16.4022 0 16.3314 0.0273438 16.2776 0.0792969L4.27266 11.6703C4.23018 11.7113 4.20469 11.7605 4.19336 11.8152L3.35791 16.4145C3.33036 16.5609 3.3402 16.7117 3.38659 16.8537C3.43298 16.9957 3.51451 17.1246 3.62412 17.2293C3.81104 17.4043 4.04609 17.5 4.29815 17.5ZM6.20693 12.7313L16.4787 2.81641L18.5546 4.8207L8.28281 14.7356L5.76514 15.1648L6.20693 12.7313ZM21.9219 19.7969H1.07813C0.576856 19.7969 0.171875 20.1879 0.171875 20.6719V21.6563C0.171875 21.7766 0.273828 21.875 0.398438 21.875H22.6016C22.7262 21.875 22.8281 21.7766 22.8281 21.6563V20.6719C22.8281 20.1879 22.4231 19.7969 21.9219 19.7969Z"
          />
</svg>
