<svg width="20" height="20" viewBox="0 0 20 20" fill="none" xmlns="http://www.w3.org/2000/svg">
<path d="M20 13.4375C20 15.3359 18.9459 16.875 16.875 16.875H3.125C1.05406 16.875 0 15.3359 0 13.4375V6.5625C0 4.66406 1.05406 3.125 3.125 3.125H16.875C18.9459 3.125 20 4.66406 20 6.5625V13.4375Z" fill="#D9231A"/>
<path d="M4.05339 5.20508L4.72183 6.56258L6.22026 6.77977L5.13683 7.83445L5.39214 9.3282L4.05339 8.62352L2.71433 9.3282L2.96995 7.83445L1.88745 6.77977L3.38339 6.56258L4.05339 5.20508Z" fill="#F9CB38"/>
<path d="M6.40845 4.06079L6.59376 4.43735L7.01063 4.49767L6.7097 4.7911L6.78001 5.20517L6.40845 5.00954L6.0372 5.20517L6.10751 4.7911L5.80688 4.49767L6.22282 4.43735L6.40845 4.06079Z" fill="#F9CB38"/>
<path d="M7.61199 5.41504L7.79762 5.79129L8.21262 5.85191L7.91293 6.14598L7.98356 6.55941L7.61199 6.3641L7.24074 6.55941L7.31105 6.14598L7.01074 5.85191L7.42605 5.79129L7.61199 5.41504Z" fill="#F9CB38"/>
<path d="M7.61199 7.58887L7.79762 7.96605L8.21262 8.02637L7.91293 8.3198L7.98356 8.73387L7.61199 8.53887L7.24074 8.73387L7.31105 8.3198L7.01074 8.02637L7.42605 7.96605L7.61199 7.58887Z" fill="#F9CB38"/>
<path d="M6.40845 9.11572L6.59376 9.49229L7.01063 9.55229L6.7097 9.84541L6.78001 10.2601L6.40845 10.0657L6.0372 10.2601L6.10751 9.84541L5.80688 9.55229L6.22282 9.49229L6.40845 9.11572Z" fill="#F9CB38"/>
</svg>
