<svg width="20" height="20" viewBox="0 0 20 20" fill="none" xmlns="http://www.w3.org/2000/svg">
<path d="M8.125 5.55005V6.6063H19.9891C19.9725 6.26567 19.9369 5.83505 19.8094 5.55005" fill="#D9231A"/>
<path d="M19.25 4.49365H8.125V5.5499H19.8094C19.6825 5.15584 19.4938 4.79646 19.25 4.49365Z" fill="white"/>
<path d="M16.875 3.4375H8.125V4.49375H19.25C18.7284 3.84063 17.87 3.4375 16.875 3.4375Z" fill="#D9231A"/>
<path d="M19.9891 6.6062H8.125V7.66245H20V6.95839C20 6.89558 19.9959 6.83433 19.9941 6.77276C19.9928 6.75589 19.9909 6.71245 19.9891 6.6062Z" fill="white"/>
<path d="M8.125 8.71885H20V7.6626H8.125V8.71885Z" fill="#D9231A"/>
<path d="M8.125 9.775H20V8.71875H8.125V9.775Z" fill="white"/>
<path d="M8.125 9.7749H20V10.8312H8.125V9.7749Z" fill="#D9231A"/>
<path d="M0 10.8313V11.8875H20V10.8313H8.125H0Z" fill="white"/>
<path d="M0 11.8875H20V12.9437H0V11.8875Z" fill="#D9231A"/>
<path d="M0.0015625 13.5935C0.0015625 13.5935 -0.00125 13.8495 0.00625 14.0001H19.9937C20.0025 13.8457 19.9984 13.5935 19.9984 13.5935L20 12.9438H0L0.0015625 13.5935Z" fill="white"/>
<path d="M3.1249 17.1875H16.8749C17.8727 17.1875 18.7021 16.825 19.2687 16.1125H0.728027C1.31303 16.8407 2.15803 17.1875 3.12334 17.1875" fill="#D9231A"/>
<path d="M0.72959 16.1124H19.2702C19.5174 15.7984 19.702 15.4398 19.814 15.0562H0.188965C0.303058 15.4386 0.486875 15.7967 0.731152 16.1124" fill="white"/>
<path d="M0.187598 15.0562H19.8126C19.9149 14.7127 19.9758 14.3581 19.9938 14H0.00634766C0.0372852 14.3612 0.0660352 14.6341 0.187598 15.0562Z" fill="#D9231A"/>
<path d="M8.125 3.4375H3.125C1.05406 3.4375 0 4.97656 0 6.875V10.8313H8.125V3.4375Z" fill="#0038A5"/>
<mask id="mask0" mask-type="alpha" maskUnits="userSpaceOnUse" x="0" y="3" width="9" height="8">
<path d="M8.125 3.4375H3.125C1.05406 3.4375 0 4.97656 0 6.875V10.8313H8.125V3.4375Z" fill="#0038A5"/>
</mask>
<g mask="url(#mask0)">
<path d="M0.328053 4.49318L0.565956 4.31038L0.803422 4.49318L0.711585 4.1993L0.947739 4.01956H0.656045L0.565519 3.72437L0.47543 4.01956H0.182861L0.420328 4.1993L0.328053 4.49318Z" fill="white"/>
<path d="M2.06219 4.49318L2.29966 4.31038L2.53756 4.49318L2.44529 4.1993L2.68144 4.01956H2.3915L2.29966 3.72437L2.20913 4.01956H1.91919L2.15403 4.1993L2.06219 4.49318Z" fill="white"/>
<path d="M3.78367 4.49318L4.02114 4.31038L4.25904 4.49318L4.1672 4.1993L4.40336 4.01956H4.11035L4.02114 3.72437L3.93105 4.01956H3.63892L3.87594 4.1993L3.78367 4.49318Z" fill="white"/>
<path d="M5.51077 4.49318L5.74868 4.31038L5.98614 4.49318L5.8943 4.1993L6.1309 4.01956H5.83833L5.74824 3.72437L5.65815 4.01956H5.36646L5.60261 4.1993L5.51077 4.49318Z" fill="white"/>
<path d="M-0.407248 5.26061L-0.169782 5.07825L0.0676843 5.26061L-0.0237162 4.96717L0.212438 4.78743H-0.0796934L-0.170219 4.49268L-0.258996 4.78743H-0.552002L-0.31541 4.96717L-0.407248 5.26061Z" fill="white"/>
<path d="M1.16502 5.26061L1.40248 5.07825L1.63995 5.26061L1.54811 4.96717L1.78427 4.78743H1.49039L1.40248 4.49268L1.31196 4.78743H1.02026L1.25686 4.96717L1.16502 5.26061Z" fill="white"/>
<path d="M2.89905 5.26061L3.13608 5.07825L3.37354 5.26061L3.2817 4.96717L3.5183 4.78743H3.2266L3.13608 4.49268L3.04555 4.78743H2.75342L2.99001 4.96717L2.89905 5.26061Z" fill="white"/>
<path d="M4.61941 5.26061L4.85732 5.07825L5.09522 5.26061L5.00207 4.96717L5.2391 4.78743H4.94741L4.85688 4.49268L4.76723 4.78743H4.4751L4.71169 4.96717L4.61941 5.26061Z" fill="white"/>
<path d="M6.34914 5.26061L6.58486 5.07825L6.82232 5.26061L6.72961 4.96717L6.96664 4.78743H6.67538L6.58442 4.49268L6.49477 4.78743H6.20264L6.43923 4.96717L6.34914 5.26061Z" fill="white"/>
<path d="M7.32291 4.49318L7.56038 4.31038L7.79829 4.49318L7.70601 4.1993L7.94216 4.01956H7.65222L7.55994 3.72437L7.46986 4.01956H7.17554L7.41475 4.1993L7.32291 4.49318Z" fill="white"/>
<path d="M0.305449 10.6347L0.542915 10.4541L0.780819 10.6347L0.688544 10.3434L0.924698 10.1633L0.633441 10.1641L0.542478 9.86938L0.452827 10.1641L0.161133 10.1633L0.397287 10.3434L0.305449 10.6347Z" fill="white"/>
<path d="M2.03929 10.6347L2.27675 10.4541L2.51465 10.6347L2.42238 10.3434L2.65853 10.1633L2.36509 10.1641L2.27631 9.86938L2.18623 10.1641L1.89453 10.1633L2.13112 10.3434L2.03929 10.6347Z" fill="white"/>
<path d="M3.76072 10.6347L3.99819 10.4541L4.23565 10.6347L4.14513 10.3434L4.37997 10.1633L4.08784 10.1641L3.99775 9.86938L3.90766 10.1641L3.61597 10.1633L3.85212 10.3434L3.76072 10.6347Z" fill="white"/>
<path d="M5.48758 10.6347L5.72548 10.4541L5.96339 10.6347L5.87242 10.3434L6.10726 10.1633L5.81557 10.1641L5.72504 9.86938L5.63539 10.1641L5.34326 10.1633L5.57942 10.3434L5.48758 10.6347Z" fill="white"/>
<path d="M7.29987 10.6347L7.53734 10.4541L7.77524 10.6347L7.68297 10.3434L7.91956 10.1633L7.62612 10.1641L7.5369 9.86938L7.44682 10.1641L7.15381 10.1633L7.39171 10.3434L7.29987 10.6347Z" fill="white"/>
<path d="M0.328053 6.02912L0.565956 5.84632L0.803422 6.02912L0.711585 5.73524L0.947739 5.5555L0.656045 5.55637L0.565519 5.26074L0.47543 5.55637L0.182861 5.5555L0.420328 5.73524L0.328053 6.02912Z" fill="white"/>
<path d="M2.06219 6.02912L2.29966 5.84632L2.53756 6.02912L2.44529 5.73524L2.68144 5.5555L2.3915 5.55637L2.29966 5.26074L2.20913 5.55637L1.91919 5.5555L2.15403 5.73524L2.06219 6.02912Z" fill="white"/>
<path d="M3.78367 6.02912L4.02114 5.84632L4.25904 6.02912L4.1672 5.73524L4.40336 5.5555L4.11035 5.55637L4.02114 5.26074L3.93105 5.55637L3.63892 5.5555L3.87594 5.73524L3.78367 6.02912Z" fill="white"/>
<path d="M5.51077 6.02912L5.74868 5.84632L5.98614 6.02912L5.8943 5.73524L6.1309 5.5555L5.83833 5.55637L5.74824 5.26074L5.65815 5.55637L5.36646 5.5555L5.60261 5.73524L5.51077 6.02912Z" fill="white"/>
<path d="M-0.407248 6.79699L-0.169782 6.61463L0.0676843 6.79699L-0.0237162 6.50355L0.212438 6.32293H-0.0796934L-0.170219 6.02905L-0.258996 6.32293H-0.552002L-0.31541 6.50355L-0.407248 6.79699Z" fill="white"/>
<path d="M1.16502 6.79699L1.40248 6.61463L1.63995 6.79699L1.54811 6.50355L1.78427 6.32293H1.49039L1.40248 6.02905L1.31196 6.32293H1.02026L1.25686 6.50355L1.16502 6.79699Z" fill="white"/>
<path d="M2.89905 6.79699L3.13608 6.61463L3.37354 6.79699L3.2817 6.50355L3.5183 6.32293H3.2266L3.13608 6.02905L3.04555 6.32293H2.75342L2.99001 6.50355L2.89905 6.79699Z" fill="white"/>
<path d="M4.61941 6.79699L4.85732 6.61463L5.09522 6.79699L5.00207 6.50355L5.2391 6.32293H4.94741L4.85688 6.02905L4.76723 6.32293H4.4751L4.71169 6.50355L4.61941 6.79699Z" fill="white"/>
<path d="M6.34914 6.79699L6.58486 6.61463L6.82232 6.79699L6.72961 6.50355L6.96664 6.32293H6.67538L6.58442 6.02905L6.49477 6.32293H6.20264L6.43923 6.50355L6.34914 6.79699Z" fill="white"/>
<path d="M7.32291 6.02912L7.56038 5.84632L7.79829 6.02912L7.70601 5.73524L7.94216 5.5555L7.65222 5.55637L7.55994 5.26074L7.46986 5.55637L7.17554 5.5555L7.41475 5.73524L7.32291 6.02912Z" fill="white"/>
<path d="M0.305449 7.56481L0.542915 7.38245L0.780819 7.56481L0.688544 7.27181L0.924698 7.09163L0.633441 7.09251L0.542478 6.79688L0.452827 7.09251L0.161133 7.09163L0.39685 7.27181L0.305449 7.56481Z" fill="white"/>
<path d="M2.03929 7.56481L2.27675 7.38245L2.51422 7.56481L2.42238 7.27181L2.65853 7.09163L2.36509 7.09251L2.27631 6.79688L2.18623 7.09251L1.89453 7.09163L2.13112 7.27181L2.03929 7.56481Z" fill="white"/>
<path d="M3.76072 7.56481L3.99775 7.38245L4.23565 7.56481L4.14513 7.27181L4.37997 7.09163L4.08784 7.09251L3.99775 6.79688L3.90766 7.09251L3.61597 7.09163L3.85212 7.27181L3.76072 7.56481Z" fill="white"/>
<path d="M5.48758 7.56481L5.72548 7.38245L5.96295 7.56481L5.87242 7.27181L6.10726 7.09163L5.81513 7.09251L5.72504 6.79688L5.63539 7.09251L5.34326 7.09163L5.57942 7.27181L5.48758 7.56481Z" fill="white"/>
<path d="M-0.429953 8.33288L-0.192487 8.15095L0.0449793 8.33288L-0.0464212 8.04162L0.189296 7.86057H-0.102836L-0.192924 7.56494L-0.282576 7.86057H-0.574707L-0.338115 8.04162L-0.429953 8.33288Z" fill="white"/>
<path d="M1.14202 8.33288L1.37948 8.15095L1.61695 8.33288L1.52511 8.04162L1.76127 7.86057H1.4687L1.37905 7.56494L1.28896 7.86057H0.996826L1.23386 8.04162L1.14202 8.33288Z" fill="white"/>
<path d="M2.8761 8.33288L3.11269 8.15095L3.35059 8.33288L3.25701 8.04162L3.49491 7.86057H3.20321L3.11269 7.56494L3.0226 7.86057H2.73047L2.96706 8.04162L2.8761 8.33288Z" fill="white"/>
<path d="M4.59535 8.33288L4.83412 8.15095L5.07203 8.33288L4.98019 8.04162L5.21591 7.86057H4.92421L4.83369 7.56494L4.74404 7.86057H4.4519L4.6885 8.04162L4.59535 8.33288Z" fill="white"/>
<path d="M6.32289 8.33288L6.56166 8.15095L6.79957 8.33288L6.70729 8.04162L6.94432 7.86057H6.65263L6.56166 7.56494L6.47158 7.86057H6.17944L6.41604 8.04162L6.32289 8.33288Z" fill="white"/>
<path d="M7.29987 7.56481L7.53734 7.38245L7.77481 7.56481L7.68297 7.27181L7.91956 7.09163L7.62612 7.09251L7.5369 6.79688L7.44682 7.09251L7.15381 7.09163L7.39171 7.27181L7.29987 7.56481Z" fill="white"/>
<path d="M0.305449 9.10138L0.542915 8.92077L0.780819 9.10138L0.688544 8.80794L0.924698 8.62776L0.633441 8.62864L0.542478 8.33301L0.452827 8.62864L0.161133 8.62776L0.39685 8.80794L0.305449 9.10138Z" fill="white"/>
<path d="M2.03929 9.10138L2.27675 8.92077L2.51422 9.10138L2.42238 8.80794L2.65853 8.62776L2.36509 8.62864L2.27631 8.33301L2.18623 8.62864L1.89453 8.62776L2.13112 8.80794L2.03929 9.10138Z" fill="white"/>
<path d="M3.76072 9.10138L3.99775 8.92077L4.23565 9.10138L4.14513 8.80794L4.37997 8.62776L4.08784 8.62864L3.99775 8.33301L3.90766 8.62864L3.61597 8.62776L3.85212 8.80794L3.76072 9.10138Z" fill="white"/>
<path d="M5.48758 9.10138L5.72548 8.92077L5.96295 9.10138L5.87242 8.80794L6.10726 8.62776L5.81513 8.62864L5.72504 8.33301L5.63539 8.62864L5.34326 8.62776L5.57942 8.80794L5.48758 9.10138Z" fill="white"/>
<path d="M-0.429953 9.86969L-0.192487 9.68689L0.0449793 9.86969L-0.0464212 9.57581L0.189296 9.39739H-0.102836L-0.192924 9.10132L-0.282576 9.39739H-0.574707L-0.338115 9.57581L-0.429953 9.86969Z" fill="white"/>
<path d="M1.14202 9.86969L1.37948 9.68689L1.61695 9.86969L1.52511 9.57581L1.76127 9.39739H1.4687L1.37905 9.10132L1.28896 9.39739H0.996826L1.23386 9.57581L1.14202 9.86969Z" fill="white"/>
<path d="M2.8761 9.86969L3.11269 9.68689L3.35059 9.86969L3.25701 9.57581L3.49491 9.39739H3.20321L3.11269 9.10132L3.0226 9.39739H2.73047L2.96706 9.57581L2.8761 9.86969Z" fill="white"/>
<path d="M4.59535 9.86969L4.83412 9.68689L5.07203 9.86969L4.98019 9.57581L5.21591 9.39739H4.92421L4.83369 9.10132L4.74404 9.39739H4.4519L4.6885 9.57581L4.59535 9.86969Z" fill="white"/>
<path d="M6.32289 9.86969L6.56166 9.68689L6.79957 9.86969L6.70729 9.57581L6.94432 9.39739H6.65263L6.56166 9.10132L6.47158 9.39739H6.17944L6.41604 9.57581L6.32289 9.86969Z" fill="white"/>
<path d="M7.29987 9.10138L7.53734 8.92077L7.77481 9.10138L7.68297 8.80794L7.91956 8.62776L7.62612 8.62864L7.5369 8.33301L7.44682 8.62864L7.15381 8.62776L7.39171 8.80794L7.29987 9.10138Z" fill="white"/>
</g>
</svg>
