<svg width="20" height="20" viewBox="0 0 20 20" xmlns="http://www.w3.org/2000/svg">
    <path d="M19.4348 16.6522H18.5305V15.087C18.5287 14.8067 18.4256 14.5366 18.2402 14.3264C18.0548 14.1163 17.7996 13.9802 17.5218 13.9435V2.91308C17.5211 2.85626 17.5093 2.80013 17.487 2.74786C17.4645 2.69568 17.432 2.64841 17.3914 2.60873H17.3609C17.3287 2.57873 17.292 2.5538 17.2522 2.53482C17.2132 2.51995 17.1722 2.51116 17.1305 2.50873H17.087H2.9131C2.89286 2.5067 2.87247 2.5067 2.85223 2.50873C2.81905 2.50425 2.78542 2.50425 2.75223 2.50873C2.7135 2.52776 2.67704 2.55109 2.64354 2.57829L2.60875 2.60873C2.564 2.65435 2.52986 2.70928 2.50875 2.7696C2.49056 2.81536 2.48027 2.86387 2.47832 2.91308V10V13.9566C2.2154 14.0077 1.97826 14.1482 1.80709 14.3542C1.63593 14.5603 1.54128 14.8191 1.53919 15.087V16.6522H0.565276C0.449964 16.6522 0.339376 16.698 0.257838 16.7796C0.1763 16.8611 0.130493 16.9717 0.130493 17.087C0.130493 17.2023 0.1763 17.3129 0.257838 17.3944C0.339376 17.476 0.449964 17.5218 0.565276 17.5218H19.4348C19.5502 17.5218 19.6607 17.476 19.7423 17.3944C19.8238 17.3129 19.8696 17.2023 19.8696 17.087C19.8696 16.9717 19.8238 16.8611 19.7423 16.7796C19.6607 16.698 19.5502 16.6522 19.4348 16.6522ZM17.6957 15.087V16.6522H14.5783V15.087C14.5783 15.0421 14.5872 14.9976 14.6045 14.9562C14.6219 14.9148 14.6472 14.8772 14.6792 14.8456C14.7111 14.8141 14.749 14.7892 14.7907 14.7724C14.8323 14.7556 14.8769 14.7473 14.9218 14.7479H17.3914C17.4783 14.7523 17.5601 14.79 17.62 14.8531C17.6799 14.9163 17.7132 15 17.7131 15.087H17.6957ZM14.9218 13.9131C14.6748 13.9149 14.4346 13.9939 14.2348 14.1392C14.6044 12.8739 15.3088 11.3957 16.6522 10.6609V13.9131H14.9218ZM6.95658 5.88264C6.73049 6.70438 6.02615 8.64351 4.34788 9.32177C5.12549 8.1599 5.67714 6.86189 5.97397 5.49569C6.30441 5.65221 6.63049 5.76525 6.95658 5.88264ZM7.79571 6.12612C8.50732 6.30012 9.23705 6.38914 9.96962 6.39134C10.7025 6.38952 11.4324 6.299 12.1435 6.12177C12.5305 7.57829 13.6001 9.65656 15.6218 10.2653C15.2 10.5859 14.8292 10.9685 14.5218 11.4H5.39136C5.09983 10.9736 4.7484 10.5914 4.34788 10.2653C6.35223 9.65656 7.4218 7.58264 7.82615 6.12612H7.79571ZM13.9914 5.49134C14.2995 6.86248 14.8629 8.16338 15.6522 9.32612C13.9609 8.64351 13.2653 6.71743 13.0435 5.87829C13.374 5.7609 13.7001 5.65221 14.0088 5.49134H13.9914ZM14.0305 12.2696C13.7601 12.8034 13.5431 13.3627 13.3827 13.9392H13.2827H10.8696C10.7174 13.9391 10.5666 13.9695 10.4263 14.0285C10.2859 14.0874 10.1588 14.1739 10.0522 14.2826C9.94477 14.1661 9.81435 14.0732 9.66918 14.0096C9.52401 13.946 9.36725 13.9131 9.20875 13.9131H6.75658C6.70741 13.9086 6.65793 13.9086 6.60875 13.9131C6.44574 13.334 6.22734 12.772 5.95658 12.2348L14.0305 12.2696ZM6.41745 16.6522V15.087C6.41745 14.997 6.45318 14.9108 6.51678 14.8472C6.58038 14.7836 6.66664 14.7479 6.75658 14.7479H9.20875C9.25365 14.7473 9.29822 14.7556 9.33987 14.7724C9.38152 14.7892 9.41942 14.8141 9.45137 14.8456C9.48333 14.8772 9.50869 14.9148 9.52601 14.9562C9.54332 14.9976 9.55224 15.0421 9.55223 15.087V16.6522H6.41745ZM10.5088 16.6522V15.087C10.5088 14.997 10.5445 14.9108 10.6081 14.8472C10.6717 14.7836 10.7579 14.7479 10.8479 14.7479H13.3001C13.345 14.7473 13.3895 14.7556 13.4312 14.7724C13.4728 14.7892 13.5107 14.8141 13.5427 14.8456C13.5746 14.8772 13.6 14.9148 13.6173 14.9562C13.6346 14.9976 13.6435 15.0421 13.6435 15.087V16.6522H10.5088ZM16.6522 9.17395C15.6783 8.21742 15.0522 6.18699 14.8088 5.09569C15.4585 4.7443 16.0755 4.33542 16.6522 3.87395V9.17395ZM10.0001 5.52177C7.39136 5.52177 5.21745 4.21742 4.09136 3.34786H15.9001C14.7827 4.21308 12.6088 5.52177 10.0001 5.52177ZM5.19136 5.08699C4.95223 6.18264 4.3218 8.20873 3.34788 9.1609V3.87829C3.92442 4.34137 4.5414 4.75171 5.19136 5.10438V5.08699ZM3.34788 10.6696C4.67832 11.4 5.38267 12.8435 5.75223 14.1044C5.57081 13.9915 5.36156 13.9313 5.14788 13.9305H3.34788V10.6696ZM2.35658 15.087C2.35658 14.997 2.39231 14.9108 2.45591 14.8472C2.51951 14.7836 2.60577 14.7479 2.69571 14.7479H5.14788C5.19278 14.7473 5.23735 14.7556 5.279 14.7724C5.32065 14.7892 5.35855 14.8141 5.3905 14.8456C5.42245 14.8772 5.44782 14.9148 5.46514 14.9562C5.48245 14.9976 5.49137 15.0421 5.49136 15.087V16.6522H2.35658V15.087Z"
    />
</svg>
