<svg width="20" height="20" viewBox="0 0 20 20" xmlns="http://www.w3.org/2000/svg">
    <path d="M19.4348 17.3914H15.2175C15.6098 16.9387 15.8258 16.3599 15.8261 15.7609V9.90441H17.4522C17.5675 9.90441 17.6781 9.8586 17.7597 9.77707C17.8412 9.69553 17.887 9.58494 17.887 9.46963V8.16528C17.8876 7.92797 17.8413 7.69287 17.7509 7.47345C17.6605 7.25404 17.5277 7.05461 17.3601 6.8866C17.1925 6.71859 16.9934 6.5853 16.7742 6.49435C16.555 6.4034 16.32 6.35658 16.0827 6.35659H14.3435C14.6026 6.07594 14.8003 5.74428 14.9238 5.38284C15.0474 5.02141 15.0941 4.63815 15.0609 4.25763C15.0278 3.8771 14.9156 3.50769 14.7315 3.17303C14.5473 2.83838 14.2953 2.54586 13.9916 2.31421C13.6879 2.08255 13.3392 1.91687 12.9678 1.82777C12.5964 1.73866 12.2104 1.7281 11.8347 1.79676C11.4589 1.86541 11.1017 2.01177 10.7857 2.22647C10.4698 2.44116 10.2022 2.71946 10.0001 3.04354C9.79619 2.71865 9.52646 2.44012 9.20828 2.22593C8.8901 2.01173 8.53054 1.86664 8.15282 1.80001C7.77509 1.73337 7.38759 1.74669 7.01533 1.83908C6.64306 1.93148 6.29431 2.10091 5.99158 2.33643C5.68885 2.57196 5.43887 2.86834 5.25778 3.20646C5.07668 3.54457 4.9685 3.91691 4.94021 4.29942C4.91192 4.68193 4.96415 5.06613 5.09353 5.42721C5.22292 5.78828 5.42658 6.11822 5.69136 6.39572H3.95223C3.71492 6.39571 3.47993 6.44253 3.26073 6.53348C3.04154 6.62443 2.84243 6.75772 2.67483 6.92573C2.50722 7.09374 2.3744 7.29317 2.28398 7.51258C2.19356 7.732 2.14731 7.9671 2.14788 8.20441V9.50876C2.14788 9.62407 2.19369 9.73466 2.27523 9.8162C2.35677 9.89773 2.46736 9.94354 2.58267 9.94354H4.19571V15.7435C4.1918 16.3485 4.40816 16.9342 4.80441 17.3914H0.565276C0.449964 17.3914 0.339376 17.4372 0.257838 17.5187C0.1763 17.6002 0.130493 17.7108 0.130493 17.8262C0.130493 17.9415 0.1763 18.0521 0.257838 18.1336C0.339376 18.2151 0.449964 18.2609 0.565276 18.2609H19.4348C19.5502 18.2609 19.6607 18.2151 19.7423 18.1336C19.8238 18.0521 19.8696 17.9415 19.8696 17.8262C19.8696 17.7108 19.8238 17.6002 19.7423 17.5187C19.6607 17.4372 19.5502 17.3914 19.4348 17.3914ZM16.9957 8.18702V9.05659H10.4348V7.24789H16.0609C16.3092 7.24904 16.547 7.34849 16.7222 7.52449C16.8974 7.70048 16.9957 7.9387 16.9957 8.18702ZM12.3088 2.60876C12.5627 2.59653 12.8165 2.63599 13.0548 2.72476C13.2931 2.81352 13.5108 2.94974 13.6949 3.12515C13.879 3.30056 14.0255 3.51152 14.1256 3.74524C14.2257 3.97897 14.2774 4.23058 14.2774 4.48485C14.2774 4.73911 14.2257 4.99073 14.1256 5.22445C14.0255 5.45817 13.879 5.66913 13.6949 5.84454C13.5108 6.01996 13.2931 6.15617 13.0548 6.24494C12.8165 6.3337 12.5627 6.37316 12.3088 6.36093H10.4348V4.50441C10.4325 4.25666 10.4793 4.0109 10.5724 3.7813C10.6655 3.55169 10.8031 3.34277 10.9773 3.16657C11.1514 2.99036 11.3588 2.85036 11.5873 2.75463C11.8158 2.6589 12.061 2.60932 12.3088 2.60876ZM5.8131 4.50441C5.80087 4.25044 5.84033 3.99663 5.9291 3.75837C6.01786 3.5201 6.15408 3.30234 6.32949 3.11827C6.50491 2.93421 6.71587 2.78768 6.94959 2.68755C7.18331 2.58743 7.43493 2.53581 7.68919 2.53581C7.94345 2.53581 8.19507 2.58743 8.42879 2.68755C8.66251 2.78768 8.87347 2.93421 9.04889 3.11827C9.2243 3.30234 9.36052 3.5201 9.44928 3.75837C9.53804 3.99663 9.57751 4.25044 9.56528 4.50441V6.37832H7.69136C7.19397 6.37833 6.71688 6.18103 6.36477 5.82973C6.01265 5.47843 5.81425 5.0018 5.8131 4.50441ZM3.00441 8.18702C3.0044 7.9387 3.10275 7.70048 3.27793 7.52449C3.45311 7.34849 3.69087 7.24904 3.93919 7.24789H9.56528V9.03485H3.00441V8.18702ZM5.06528 15.7435V9.90441H9.56528V17.3914H6.69571C6.48029 17.3908 6.26711 17.3477 6.06842 17.2644C5.86972 17.1812 5.68944 17.0595 5.53792 16.9064C5.38641 16.7533 5.26665 16.5717 5.18554 16.3721C5.10443 16.1726 5.06356 15.959 5.06528 15.7435ZM10.4348 17.3914V9.90441H14.9348V15.7435C14.9366 15.959 14.8957 16.1726 14.8146 16.3721C14.7335 16.5717 14.6137 16.7533 14.4622 16.9064C14.3107 17.0595 14.1304 17.1812 13.9317 17.2644C13.733 17.3477 13.5198 17.3908 13.3044 17.3914H10.4348Z"
    />
</svg>
