<svg width="32" height="32" viewBox="0 0 32 32" fill="none" xmlns="http://www.w3.org/2000/svg">
<path d="M16 0C7.16333 0 0 7.16333 0 16C0 24.8367 7.16333 32 16 32C24.8367 32 32 24.8367 32 16C32 7.16333 24.8367 0 16 0ZM15.0783 22.8683C14.0733 23.3567 12.9917 23.4083 12.5733 23.4083H12.4483H12.3583C11.705 23.4083 8.45333 23.2583 8.45333 20.2967C8.45333 17.3867 11.995 17.1583 13.08 17.1583H13.1083C12.4817 16.3217 12.6117 15.4783 12.6117 15.4783C12.534 15.4829 12.4562 15.4851 12.3783 15.485C11.97 15.485 11.1817 15.42 10.505 14.9833C9.675 14.45 9.255 13.5417 9.255 12.285C9.255 8.73333 13.1333 8.59 13.1717 8.58667H17.045V8.67167C17.045 9.105 16.2667 9.19 15.7367 9.26167C15.5567 9.28833 15.195 9.32333 15.0933 9.375C16.075 9.9 16.2333 10.7233 16.2333 11.95C16.2333 13.3467 15.6867 14.085 15.1067 14.6033C14.7467 14.925 14.465 15.1767 14.465 15.515C14.465 15.8467 14.8517 16.185 15.3017 16.58C16.0367 17.2283 17.045 18.11 17.045 19.5983C17.045 21.1367 16.3833 22.2367 15.0783 22.8683ZM23.5 16H21V18.5H19.3333V16H16.8333V14.3333H19.3333V11.8333H21V14.3333H23.5V16ZM13.0383 17.9167C12.951 17.9167 12.8637 17.92 12.7767 17.9267C12.0688 17.9674 11.3945 18.2424 10.86 18.7083C10.37 19.1517 10.12 19.7117 10.155 20.2767C10.23 21.4617 11.5017 22.155 13.0467 22.045C14.5667 21.935 15.58 21.0583 15.5067 19.8733C15.4367 18.76 14.4683 17.9167 13.0383 17.9167ZM14.495 11.475C14.0917 10.0583 13.4417 9.63833 12.4317 9.63833C12.3224 9.63913 12.2137 9.65426 12.1083 9.68333C11.67 9.80833 11.3217 10.1733 11.1283 10.7167C10.93 11.2667 10.9183 11.84 11.0883 12.4933C11.3967 13.6617 12.2267 14.5083 13.0633 14.5083C13.1727 14.5094 13.2817 14.4942 13.3867 14.4633C14.3017 14.2067 14.875 12.81 14.495 11.475Z" fill="#D24343"/>
</svg>
