<svg width="22" height="22" viewBox="0 0 22 22" xmlns="http://www.w3.org/2000/svg">
<circle cx="11" cy="11" r="11"/>
<path d="M12.1564 12.1564C12.0066 12.3171 11.8259 12.4461 11.6252 12.5355C11.4244 12.625 11.2078 12.6731 10.988 12.6769C10.7683 12.6808 10.5501 12.6404 10.3463 12.5581C10.1426 12.4758 9.95748 12.3533 9.8021 12.1979C9.64671 12.0425 9.52421 11.8574 9.44191 11.6537C9.35961 11.4499 9.3192 11.2317 9.32307 11.012C9.32695 10.7922 9.37504 10.5756 9.46448 10.3748C9.55392 10.1741 9.68287 9.99345 9.84364 9.84364M14.24 14.24C13.3076 14.9507 12.1722 15.3445 11 15.3636C7.18182 15.3636 5 11 5 11C5.67849 9.73558 6.61953 8.63088 7.76 7.76L14.24 14.24ZM9.85455 6.76728C10.23 6.67939 10.6144 6.63546 11 6.63637C14.8182 6.63637 17 11 17 11C16.6689 11.6194 16.274 12.2026 15.8218 12.74L9.85455 6.76728Z" stroke="white" stroke-linecap="round" stroke-linejoin="round"/>
<path d="M5 5L17 17" stroke="white" stroke-linecap="round" stroke-linejoin="round"/>
</svg>
