<svg width="20" height="20" viewBox="0 0 20 20" fill="none" xmlns="http://www.w3.org/2000/svg">
<path d="M4.21701 16.2947C4.22227 16.7158 4.21175 17.1421 4.30644 17.5473C4.63786 19.021 5.90039 19.9999 7.41018 19.9999C10.535 19.9999 13.6597 19.9999 16.7845 19.9999C16.9792 19.9999 17.1791 19.9842 17.3737 19.9526C18.8677 19.7157 19.9987 18.3842 19.9987 16.8684C19.9987 13.9158 19.9987 10.9685 19.9987 8.01588C19.9987 7.66325 20.0092 7.30536 19.9672 6.95273C19.7725 5.38433 18.4206 4.21592 16.8371 4.22119C14.049 4.22645 11.2609 4.22119 8.47281 4.22119C7.96254 4.22119 7.45226 4.18434 6.95251 4.25803C5.67419 4.43697 4.82724 5.16854 4.38009 6.37905C4.19071 6.88957 4.21701 7.42115 4.21701 7.95272C4.21701 9.33691 4.21701 10.7211 4.21701 12.1106C4.21701 12.4842 4.21701 12.8579 4.21701 13.2263C4.21175 14.2421 4.20649 15.2684 4.21701 16.2947ZM16.795 17.9052C15.2326 17.9052 13.665 17.9052 12.1026 17.9052C10.94 17.9052 9.77217 17.9052 8.60959 17.9052C9.1146 15.4632 10.9348 13.6474 13.0916 13.6474C14.0701 13.6474 15.0012 14.0158 15.7955 14.7158C16.5899 15.4211 17.1948 16.4316 17.4947 17.5684L17.663 17.5263C17.4631 17.7631 17.158 17.9052 16.795 17.9052ZM13.0863 11.6053C12.313 11.6053 11.6818 10.9737 11.6818 10.2001C11.6818 9.42639 12.313 8.79481 13.0863 8.79481C13.8596 8.79481 14.4909 9.42639 14.4909 10.2001C14.4909 10.9737 13.8596 11.6053 13.0863 11.6053ZM6.31072 7.39483C6.31072 6.76326 6.75787 6.30537 7.3944 6.30537C9.14091 6.30011 10.8927 6.30537 12.6392 6.30537C14.0017 6.30537 15.3642 6.30537 16.7266 6.30011C17.0265 6.30011 17.3001 6.35274 17.5315 6.558C17.7788 6.77379 17.905 7.05273 17.905 7.37904C17.905 9.65796 17.905 11.9316 17.905 14.2105C17.642 13.879 17.3579 13.5737 17.0475 13.3C16.5478 12.8579 16.0007 12.5053 15.4273 12.2527C15.906 11.7053 16.2006 10.9895 16.2006 10.2053C16.2006 8.48955 14.8065 7.09484 13.0916 7.09484C11.3766 7.09484 9.9826 8.48955 9.9826 10.2053C9.9826 10.9895 10.2719 11.7053 10.7559 12.2527C9.89317 12.6369 9.10408 13.2316 8.43599 14.0211C7.568 15.0474 6.98407 16.3158 6.7263 17.6894C6.4738 17.4947 6.31598 17.1947 6.31598 16.8316C6.31598 15.2684 6.31598 13.7 6.31598 12.1369C6.31598 11.0053 6.31598 9.87375 6.31072 8.74218C6.30546 8.28956 6.30546 7.84219 6.31072 7.39483Z" fill="white"/>
<path d="M1.37301 14.6788C1.8149 14.5367 2.09371 14.1419 2.09371 13.6577C2.09371 10.1788 2.09371 6.70518 2.09897 3.22628C2.09897 3.07891 2.12001 2.92628 2.16736 2.78944C2.31465 2.3526 2.70393 2.08945 3.18791 2.08418C4.22424 2.07892 5.26583 2.08418 6.30216 2.08418C8.41691 2.08418 10.5264 2.08418 12.6412 2.08418C13.2251 2.08418 13.6827 1.62103 13.6775 1.03683C13.6722 0.452626 13.2146 0 12.6254 0C9.47955 0 6.33373 0 3.18791 0C2.86175 0 2.54086 0.0368416 2.23048 0.13684C0.883776 0.563151 0 1.77366 0 3.18417C0 4.91047 0 6.64202 0 8.36832C0 10.1315 0 11.8946 0 13.6577C0 14.3893 0.683874 14.8998 1.37301 14.6788Z" fill="white"/>
</svg>
