<svg width="43" height="44" viewBox="0 0 43 44"  xmlns="http://www.w3.org/2000/svg">
<ellipse cx="21.4849" cy="22.0119" rx="20.8433" ry="21.506" fill="#4270AD"/>
<path d="M24.746 26.9264L22.6201 28.9349V20.9883H20.7715V28.9349L18.6456 26.9264L17.3516 28.149L21.6958 32.2533L26.04 28.149L24.746 26.9264Z" fill="white"/>
<path d="M27.1868 15.4515H27.1023C26.2576 12.6673 23.8924 10.7471 21.1893 10.7471C17.726 10.7471 14.8539 14.0114 14.8539 17.9477C14.8539 18.1398 14.8539 18.2358 14.8539 18.4278C12.9956 18.4278 11.5596 20.156 11.5596 22.2681C11.5596 24.3803 13.0801 26.1085 14.9384 26.1085H19.162V24.1883H14.9384C13.9248 24.1883 13.1645 23.4202 13.1645 22.2681C13.1645 21.116 14.0092 20.2519 14.9384 20.2519C15.1918 20.2519 15.3608 20.3479 15.5297 20.444L17.1346 21.2121L16.7123 19.2919C16.6278 18.9079 16.5433 18.4278 16.5433 17.9477C16.5433 15.0675 18.6551 12.6673 21.1893 12.6673C23.301 12.6673 25.1594 14.2994 25.7507 16.8917L25.9197 17.7557L26.6799 17.5637C26.8489 17.4677 27.0178 17.4677 27.1867 17.4677C28.8762 17.4677 30.2277 19.0038 30.2277 20.828C30.2277 22.6522 28.7917 24.1883 27.1868 24.1883H24.2303V26.1085H27.1868C29.7209 26.1085 31.8327 23.6123 31.8327 20.732C31.8327 17.8517 29.7209 15.4515 27.1868 15.4515Z" fill="white"/>
</svg>
