<svg width="34" height="34" viewBox="0 0 34 34" fill="none" xmlns="http://www.w3.org/2000/svg">
<g clip-path="url(#clip0)">
<path d="M16.9997 3.29032C17.9083 3.29032 18.6448 2.55376 18.6448 1.64516C18.6448 0.736564 17.9083 0 16.9997 0C16.0911 0 15.3545 0.736564 15.3545 1.64516C15.3545 2.55376 16.0911 3.29032 16.9997 3.29032Z" fill="#4270AD"/>
<path opacity="0.2" d="M16.9997 34.0003C17.9083 34.0003 18.6448 33.2637 18.6448 32.3551C18.6448 31.4465 17.9083 30.71 16.9997 30.71C16.0911 30.71 15.3545 31.4465 15.3545 32.3551C15.3545 33.2637 16.0911 34.0003 16.9997 34.0003Z" fill="#4270AD"/>
<path opacity="0.7" d="M9.3229 5.31962C10.2315 5.31962 10.9681 4.58306 10.9681 3.67446C10.9681 2.76586 10.2315 2.0293 9.3229 2.0293C8.4143 2.0293 7.67773 2.76586 7.67773 3.67446C7.67773 4.58306 8.4143 5.31962 9.3229 5.31962Z" fill="#4270AD"/>
<path opacity="0.1" d="M26.103 29.503C26.5417 30.2708 26.2675 31.2579 25.4997 31.7514C24.732 32.1901 23.7449 31.9159 23.2514 31.1482C22.8127 30.3805 23.0868 29.3934 23.8546 28.8998C24.6223 28.4611 25.6643 28.7353 26.103 29.503Z" fill="#4270AD"/>
<path opacity="0.6" d="M4.49682 7.89721C5.26456 8.33592 5.53876 9.32302 5.10005 10.1456C4.66134 10.9133 3.67424 11.1875 2.85166 10.7488C2.08392 10.3101 1.80973 9.32302 2.24844 8.50044C2.68715 7.67786 3.72908 7.4585 4.49682 7.89721Z" fill="#4270AD"/>
<path opacity="0.5" d="M1.64516 18.6448C2.55376 18.6448 3.29032 17.9083 3.29032 16.9997C3.29032 16.0911 2.55376 15.3545 1.64516 15.3545C0.736564 15.3545 0 16.0911 0 16.9997C0 17.9083 0.736564 18.6448 1.64516 18.6448Z" fill="#4270AD"/>
<path d="M32.3551 18.6448C33.2637 18.6448 34.0003 17.9083 34.0003 16.9997C34.0003 16.0911 33.2637 15.3545 32.3551 15.3545C31.4465 15.3545 30.71 16.0911 30.71 16.9997C30.71 17.9083 31.4465 18.6448 32.3551 18.6448Z" fill="#4270AD"/>
<path opacity="0.4" d="M2.85161 23.2514C3.61935 22.8127 4.60645 23.0868 5.09999 23.8546C5.5387 24.6223 5.26451 25.6094 4.49677 26.103C3.72903 26.5417 2.74193 26.2675 2.24838 25.4997C1.75483 24.732 2.08386 23.7449 2.85161 23.2514Z" fill="#4270AD"/>
<path d="M29.503 7.89687C30.2708 7.45816 31.2579 7.73236 31.7514 8.5001C32.1901 9.26784 31.9159 10.2549 31.1482 10.7485C30.3805 11.1872 29.3934 10.913 28.8998 10.1453C28.4611 9.37752 28.7353 8.33558 29.503 7.89687Z" fill="#4270AD"/>
<path opacity="0.3" d="M7.89687 29.503C8.33558 28.7353 9.32268 28.4611 10.1453 28.8998C10.913 29.3385 11.1872 30.3256 10.7485 31.1482C10.3098 31.9159 9.32268 32.1901 8.5001 31.7514C7.73236 31.2579 7.45816 30.2708 7.89687 29.503Z" fill="#4270AD"/>
<path d="M23.2514 2.85166C23.6901 2.08392 24.6772 1.80973 25.4997 2.24844C26.2675 2.68715 26.5417 3.67424 26.103 4.49682C25.6643 5.26456 24.6772 5.53876 23.8546 5.10005C23.0868 4.66134 22.8127 3.67424 23.2514 2.85166Z" fill="#4270AD"/>
</g>
<defs>
<clipPath id="clip0">
<rect width="34" height="34" fill="white"/>
</clipPath>
</defs>
</svg>
