<svg width="20" height="20" viewBox="0 0 20 20" xmlns="http://www.w3.org/2000/svg">
    <path d="M1.30441 3.69568H9.1305V5.0522C9.03337 5.07069 8.93752 5.09538 8.84354 5.12611C8.24809 5.34365 7.76338 5.78872 7.49596 6.36351C7.22854 6.93829 7.20031 7.59574 7.41746 8.19133C7.45895 8.29663 7.53987 8.38161 7.64302 8.42819C7.74617 8.47477 7.86342 8.4793 7.96985 8.4408C8.07629 8.4023 8.16351 8.32382 8.213 8.22203C8.26248 8.12024 8.27032 8.00316 8.23485 7.89568C8.16529 7.7087 8.13329 7.50985 8.14067 7.31049C8.14805 7.11113 8.19466 6.91518 8.27785 6.73386C8.36104 6.55254 8.47917 6.3894 8.62548 6.25378C8.77179 6.11817 8.9434 6.01273 9.1305 5.94351C9.25638 5.89833 9.38823 5.87196 9.5218 5.86524H9.56528H9.61746C9.85401 5.85348 10.0898 5.89975 10.3044 6.00003C10.4874 6.08447 10.6514 6.20503 10.7867 6.35446C10.9219 6.50389 11.0255 6.67911 11.0914 6.86959C11.2303 7.24901 11.2131 7.66805 11.0435 8.03481C10.9946 8.13917 10.989 8.25871 11.0282 8.36715C11.0673 8.47559 11.1479 8.56405 11.2522 8.61307C11.3098 8.63844 11.3719 8.65176 11.4348 8.6522C11.518 8.65241 11.5995 8.62876 11.6696 8.58406C11.7397 8.53937 11.7956 8.4755 11.8305 8.40003C12.0988 7.82458 12.1278 7.16613 11.9109 6.56937C11.694 5.97261 11.2492 5.48635 10.674 5.21742C10.46 5.11896 10.2331 5.05161 10.0001 5.01742V3.71307H18.2609C18.3762 3.71307 18.4868 3.66726 18.5684 3.58573C18.6499 3.50419 18.6957 3.3936 18.6957 3.27829C18.6957 3.16298 18.6499 3.05239 18.5684 2.97085C18.4868 2.88931 18.3762 2.84351 18.2609 2.84351H1.30441C1.1891 2.84351 1.07851 2.88931 0.996974 2.97085C0.915436 3.05239 0.869629 3.16298 0.869629 3.27829C0.869629 3.3936 0.915436 3.50419 0.996974 3.58573C1.07851 3.66726 1.1891 3.71307 1.30441 3.71307V3.69568Z"
    />
    <path d="M17.913 12.8913V9.78256C17.913 9.66725 17.8672 9.55666 17.7856 9.47512C17.7041 9.39359 17.5935 9.34778 17.4782 9.34778H13.6521C13.5368 9.34778 13.4262 9.39359 13.3447 9.47512C13.2631 9.55666 13.2173 9.66725 13.2173 9.78256V12.826H12.1738V9.78256C12.1738 9.66725 12.128 9.55666 12.0465 9.47512C11.965 9.39359 11.8544 9.34778 11.7391 9.34778H7.91297C7.79766 9.34778 7.68707 9.39359 7.60554 9.47512C7.524 9.55666 7.47819 9.66725 7.47819 9.78256V12.826H6.43471V9.78256C6.43471 9.66725 6.38891 9.55666 6.30737 9.47512C6.22583 9.39359 6.11524 9.34778 5.99993 9.34778H2.17384C2.05853 9.34778 1.94794 9.39359 1.86641 9.47512C1.78487 9.55666 1.73906 9.66725 1.73906 9.78256V13.0043C1.34746 13.1752 1.01489 13.4577 0.782909 13.8165C0.550927 14.1753 0.429818 14.5945 0.434713 15.0217C0.434713 15.5982 0.66375 16.1512 1.07144 16.5589C1.2733 16.7607 1.51295 16.9209 1.77671 17.0301C2.04046 17.1394 2.32314 17.1956 2.60863 17.1956H17.4347C17.9628 17.1889 18.4703 16.9901 18.8626 16.6365C19.2548 16.2828 19.5049 15.7985 19.5662 15.274C19.6274 14.7494 19.4956 14.2205 19.1954 13.786C18.8952 13.3515 18.447 13.0412 17.9347 12.913L17.913 12.8913ZM14.0869 10.2173H17.0434V12.826H14.0869V10.2173ZM8.34776 10.2173H11.3043V12.826H8.34776V10.2173ZM2.60863 10.2173H5.56515V12.826H2.60863V10.2173ZM17.413 16.3043H2.60863C2.26269 16.3043 1.93093 16.1669 1.68631 15.9223C1.4417 15.6777 1.30428 15.3459 1.30428 15C1.30428 14.654 1.4417 14.3223 1.68631 14.0776C1.93093 13.833 2.26269 13.6956 2.60863 13.6956H17.4347C17.7806 13.6956 18.1124 13.833 18.357 14.0776C18.6016 14.3223 18.7391 14.654 18.7391 15C18.7391 15.3459 18.6016 15.6777 18.357 15.9223C18.1124 16.1669 17.7806 16.3043 17.4347 16.3043H17.413Z"
    />
</svg>
