<svg width="20" height="20" viewBox="0 0 20 20"  xmlns="http://www.w3.org/2000/svg">
    <path d="M9.76118 6.99999C9.56812 6.99999 9.3794 7.05864 9.21888 7.16852C9.05836 7.2784 8.93325 7.43458 8.85937 7.6173C8.78549 7.80003 8.76616 8.0011 8.80382 8.19508C8.84148 8.38906 8.93445 8.56724 9.07096 8.70709C9.20747 8.84694 9.3814 8.94218 9.57075 8.98077C9.7601 9.01935 9.95636 8.99955 10.1347 8.92386C10.3131 8.84818 10.4655 8.72001 10.5728 8.55556C10.6801 8.39111 10.7373 8.19777 10.7373 7.99999C10.7373 7.73477 10.6345 7.48042 10.4514 7.29288C10.2683 7.10534 10.0201 6.99999 9.76118 6.99999ZM16.594 0H2.92835C2.15171 0 1.40687 0.31607 0.857695 0.878678C0.308522 1.44129 0 2.20435 0 2.99999V13C0 13.7956 0.308522 14.5587 0.857695 15.1213C1.40687 15.6839 2.15171 16 2.92835 16H14.2416L17.8532 19.71C17.9444 19.8026 18.0526 19.876 18.1715 19.9257C18.2904 19.9755 18.4178 20.0007 18.5462 20C18.6743 20.0033 18.8013 19.9759 18.9172 19.92C19.0954 19.8449 19.248 19.7175 19.3557 19.5538C19.4634 19.3901 19.5214 19.1974 19.5224 19V2.99999C19.5224 2.20435 19.2138 1.44129 18.6647 0.878678C18.1155 0.31607 17.3707 0 16.594 0ZM17.5701 16.59L15.3348 14.29C15.2436 14.1973 15.1354 14.124 15.0165 14.0742C14.8976 14.0244 14.7702 13.9992 14.6418 14H2.92835C2.66947 14 2.42119 13.8946 2.23814 13.7071C2.05508 13.5195 1.95224 13.2652 1.95224 13V2.99999C1.95224 2.73478 2.05508 2.48043 2.23814 2.29289C2.42119 2.10535 2.66947 2 2.92835 2H16.594C16.8529 2 17.1012 2.10535 17.2842 2.29289C17.4673 2.48043 17.5701 2.73478 17.5701 2.99999V16.59ZM5.85671 6.99999C5.66365 6.99999 5.47493 7.05864 5.31441 7.16852C5.15389 7.2784 5.02877 7.43458 4.95489 7.6173C4.88101 7.80003 4.86168 8.0011 4.89935 8.19508C4.93701 8.38906 5.02998 8.56724 5.16649 8.70709C5.303 8.84694 5.47693 8.94218 5.66628 8.98077C5.85563 9.01935 6.05189 8.99955 6.23025 8.92386C6.40862 8.84818 6.56106 8.72001 6.66832 8.55556C6.77558 8.39111 6.83283 8.19777 6.83283 7.99999C6.83283 7.73477 6.72999 7.48042 6.54693 7.29288C6.36387 7.10534 6.11559 6.99999 5.85671 6.99999ZM13.6657 6.99999C13.4726 6.99999 13.2839 7.05864 13.1234 7.16852C12.9628 7.2784 12.8377 7.43458 12.7638 7.6173C12.69 7.80003 12.6706 8.0011 12.7083 8.19508C12.746 8.38906 12.8389 8.56724 12.9754 8.70709C13.1119 8.84694 13.2859 8.94218 13.4752 8.98077C13.6646 9.01935 13.8608 8.99955 14.0392 8.92386C14.2176 8.84818 14.37 8.72001 14.4773 8.55556C14.5845 8.39111 14.6418 8.19777 14.6418 7.99999C14.6418 7.73477 14.5389 7.48042 14.3559 7.29288C14.1728 7.10534 13.9245 6.99999 13.6657 6.99999Z"
          />
</svg>
