<svg width="20" height="20" viewBox="0 0 20 20" xmlns="http://www.w3.org/2000/svg">
    <path d="M19.4348 17.4914H18.7609L15.2175 1.97832C15.1954 1.88025 15.14 1.79285 15.0607 1.73102C14.9814 1.66919 14.8832 1.63674 14.7827 1.63919C14.6828 1.63652 14.585 1.66835 14.5058 1.72933C14.4266 1.79031 14.3708 1.8767 14.3479 1.97398L10.574 17.4914H8.08702V11.4044C8.08702 11.2891 8.04121 11.1785 7.95967 11.097C7.87813 11.0154 7.76754 10.9696 7.65223 10.9696H3.56962C3.45431 10.9696 3.34372 11.0154 3.26219 11.097C3.18065 11.1785 3.13484 11.2891 3.13484 11.4044V17.4914H0.565276C0.449964 17.4914 0.339376 17.5372 0.257838 17.6187C0.1763 17.7002 0.130493 17.8108 0.130493 17.9261C0.130493 18.0415 0.1763 18.152 0.257838 18.2336C0.339376 18.3151 0.449964 18.3609 0.565276 18.3609H19.4348C19.5502 18.3609 19.6607 18.3151 19.7423 18.2336C19.8238 18.152 19.8696 18.0415 19.8696 17.9261C19.8696 17.8108 19.8238 17.7002 19.7423 17.6187C19.6607 17.5372 19.5502 17.4914 19.4348 17.4914ZM14.7827 3.96528L17.8696 17.4914H11.4696L14.7827 3.96528ZM4.00441 17.4914V11.8392H7.21745V17.4914H4.00441Z"
    />
    <path d="M5.61302 9.56523C6.39868 9.56523 7.16667 9.33208 7.81974 8.89532C8.47281 8.45856 8.98159 7.83783 9.28165 7.11172C9.58171 6.38562 9.65956 5.58681 9.50533 4.81643C9.3511 4.04606 8.97174 3.33877 8.41528 2.78414C7.85882 2.22951 7.15029 1.85248 6.37942 1.70079C5.60854 1.5491 4.80998 1.62957 4.08487 1.93202C3.35976 2.23447 2.74071 2.74529 2.3061 3.39979C1.87149 4.0543 1.64087 4.82305 1.64345 5.60871C1.64805 6.65889 2.06816 7.66455 2.81198 8.40592C3.55579 9.14729 4.56283 9.56409 5.61302 9.56523ZM5.61302 2.49567C6.22558 2.49567 6.82442 2.67716 7.33392 3.01722C7.84343 3.35728 8.24077 3.84066 8.47578 4.40635C8.71079 4.97205 8.77293 5.59468 8.65437 6.19566C8.53581 6.79665 8.24186 7.34903 7.80962 7.78309C7.37738 8.21715 6.82623 8.51342 6.22576 8.6345C5.62528 8.75558 5.00238 8.69605 4.43571 8.46342C3.86904 8.23079 3.38399 7.83548 3.04179 7.32741C2.6996 6.81933 2.5156 6.22127 2.51302 5.60871C2.51302 4.78654 2.83963 3.99804 3.42099 3.41668C4.00235 2.83532 4.79085 2.50871 5.61302 2.50871V2.49567Z"
    />
</svg>
