<svg width="20" height="20" viewBox="0 0 20 20" xmlns="http://www.w3.org/2000/svg">
    <path d="M19.4348 14.8913H17.1957V11.7739C17.1957 11.6586 17.1499 11.548 17.0684 11.4665C16.9868 11.3849 16.8762 11.3391 16.7609 11.3391H14.8305V8.22609C14.8305 8.11078 14.7847 8.00019 14.7031 7.91865C14.6216 7.83712 14.511 7.79131 14.3957 7.79131H12.4696V4.67392C12.4696 4.55861 12.4238 4.44802 12.3423 4.36648C12.2607 4.28494 12.1502 4.23914 12.0348 4.23914H7.3131C7.19779 4.23914 7.0872 4.28494 7.00566 4.36648C6.92413 4.44802 6.87832 4.55861 6.87832 4.67392V7.79131H4.95223C4.83692 7.79131 4.72633 7.83712 4.64479 7.91865C4.56326 8.00019 4.51745 8.11078 4.51745 8.22609V11.3391H2.60875C2.49344 11.3391 2.38285 11.3849 2.30132 11.4665C2.21978 11.548 2.17397 11.6586 2.17397 11.7739V14.8913H0.565276C0.449964 14.8913 0.339376 14.9371 0.257838 15.0187C0.1763 15.1002 0.130493 15.2108 0.130493 15.3261C0.130493 15.4414 0.1763 15.552 0.257838 15.6335C0.339376 15.7151 0.449964 15.7609 0.565276 15.7609H19.4348C19.5502 15.7609 19.6607 15.7151 19.7423 15.6335C19.8238 15.552 19.8696 15.4414 19.8696 15.3261C19.8696 15.2108 19.8238 15.1002 19.7423 15.0187C19.6607 14.9371 19.5502 14.8913 19.4348 14.8913ZM13.9609 11.3391H10.1088V8.66087H13.9609V11.3391ZM7.74788 5.1087H11.6001V7.79131H7.74788V5.1087ZM5.38702 8.66087H9.23919V11.3391H5.38702V8.66087ZM3.04354 12.2087H6.90006V14.8913H3.04354V12.2087ZM7.76962 12.2087H11.6218V14.8913H7.74788L7.76962 12.2087ZM12.4914 14.8913V12.2087H16.3479V14.8913H12.4914Z"
    />
</svg>
