<svg width="20" height="20" viewBox="0 0 20 20" xmlns="http://www.w3.org/2000/svg">
    <path d="M19.4348 16.5739H18.874V10.4869L15.3218 8.12173L11.587 10.4783V11.7826C11.004 11.3305 10.3441 10.9873 9.63919 10.7696C10.5078 10.3196 11.1994 9.58991 11.602 8.69835C12.0047 7.80679 12.0949 6.8055 11.858 5.85634C11.6212 4.90718 11.0712 4.06562 10.297 3.46769C9.5227 2.86977 8.56942 2.55043 7.59122 2.5613C6.61302 2.57217 5.66707 2.91261 4.90629 3.52759C4.1455 4.14257 3.61435 4.99614 3.39868 5.95033C3.18301 6.90452 3.29543 7.90356 3.71778 8.78595C4.14013 9.66835 4.84771 10.3825 5.72615 10.813C5.59136 10.8565 5.46093 10.9043 5.33049 10.9565H5.30441C4.1704 11.4184 3.18933 12.1903 2.47348 13.1837C1.75763 14.1771 1.33591 15.352 1.25658 16.5739H0.565276C0.449964 16.5739 0.339376 16.6197 0.257838 16.7012C0.1763 16.7828 0.130493 16.8934 0.130493 17.0087C0.130493 17.124 0.1763 17.2346 0.257838 17.3161C0.339376 17.3977 0.449964 17.4435 0.565276 17.4435H19.4348C19.5502 17.4435 19.6607 17.3977 19.7423 17.3161C19.8238 17.2346 19.8696 17.124 19.8696 17.0087C19.8696 16.8934 19.8238 16.7828 19.7423 16.7012C19.6607 16.6197 19.5502 16.5739 19.4348 16.5739ZM6.98701 14.4H8.37397V16.5739H6.98701V14.4ZM8.51745 13.5304H6.84354L6.60006 12.9304H8.77397L8.51745 13.5304ZM9.13049 12.0609H6.24354L6.06093 11.6261C7.11733 11.2921 8.24897 11.2785 9.3131 11.5869L9.13049 12.0609ZM7.64789 3.42608C8.46947 3.42697 9.26423 3.71866 9.89132 4.24946C10.5184 4.78027 10.9374 5.51592 11.074 6.32608C10.087 6.05216 8.10875 5.45651 7.07832 4.84347C6.99752 4.7942 6.90286 4.77264 6.8087 4.78206C6.71454 4.79147 6.62602 4.83135 6.55658 4.89564C5.86999 5.49063 5.08212 5.95746 4.23049 6.2739C4.37777 5.47479 4.80018 4.75246 5.42442 4.23226C6.04865 3.71207 6.83531 3.42684 7.64789 3.42608ZM4.16962 7.21738C5.15653 6.88699 6.07883 6.38833 6.89571 5.74347C8.24494 6.37339 9.65135 6.87276 11.0957 7.23477C11.0148 8.09721 10.6149 8.89841 9.97445 9.48161C9.33395 10.0648 8.4989 10.388 7.63267 10.388C6.76644 10.388 5.93138 10.0648 5.29089 9.48161C4.6504 8.89841 4.25056 8.09721 4.16962 7.23477V7.21738ZM5.24354 11.9478L6.1131 14.0522V16.5739H2.12615C2.20253 15.5977 2.53121 14.6581 3.07997 13.8471C3.62874 13.0362 4.37877 12.3817 5.25658 11.9478H5.24354ZM9.23049 16.5739V14.0522L9.79571 12.6652L10.1131 11.8956C10.6524 12.1563 11.1458 12.5028 11.574 12.9217V16.5739H9.23049ZM14.4479 16.5739V14.1391H15.9653V16.5739H14.4479ZM16.8348 16.5739V13.7043C16.8348 13.589 16.789 13.4784 16.7075 13.3969C16.626 13.3154 16.5154 13.2696 16.4001 13.2696H14.0348C13.9195 13.2696 13.8089 13.3154 13.7274 13.3969C13.6459 13.4784 13.6001 13.589 13.6001 13.7043V16.5739H12.4566V10.9217L15.3088 9.13042L18.0044 10.9217V16.5739H16.8348Z"
          />
</svg>
