<svg width="20" height="17" viewBox="0 0 20 17" fill="none" xmlns="http://www.w3.org/2000/svg">
<path d="M16.2978 5.36692C16.787 4.80019 17.0873 4.05909 17.0873 3.25018C17.0873 1.45798 15.6293 0 13.8371 0C12.0449 0 10.587 1.45798 10.587 3.25018C10.587 4.06878 10.8921 4.81473 11.3959 5.38629C11.144 5.53161 10.897 5.70114 10.6645 5.89489C10.2818 6.20489 10.2285 6.76677 10.5385 7.14943C10.8485 7.52725 11.4104 7.58537 11.7931 7.27537C12.4082 6.77162 13.1299 6.50036 13.8759 6.50036C15.0336 6.50036 16.1089 7.13974 16.8209 8.25382C17.0583 8.62679 17.2472 9.03851 17.3779 9.47929C17.4942 9.8668 17.8478 10.1138 18.2305 10.1138C18.3128 10.1138 18.4 10.1041 18.4872 10.0751C18.957 9.93461 19.2283 9.4357 19.083 8.96585C18.9037 8.36522 18.647 7.80334 18.3176 7.2899C17.7848 6.46646 17.0873 5.81255 16.2978 5.36692ZM13.8371 4.72269C13.0282 4.72269 12.3695 4.06394 12.3695 3.25503C12.3695 2.44611 13.0282 1.78736 13.8371 1.78736C14.6461 1.78736 15.3048 2.44611 15.3048 3.25503C15.3048 4.06394 14.6461 4.72269 13.8371 4.72269Z" fill="white"/>
<path d="M19.5592 10.9087H0.440785C0.198595 10.9087 0 11.1073 0 11.3495V12.0615C0 12.3037 0.198595 12.5023 0.440785 12.5023H3.67159V15.7137C3.67159 15.9511 3.86534 16.14 4.09784 16.14H4.80019C5.03754 16.14 5.22645 15.9462 5.22645 15.7137V12.5023H14.9092V15.7137C14.9092 15.9511 15.1029 16.14 15.3354 16.14H16.0378C16.2751 16.14 16.464 15.9462 16.464 15.7137V12.5023H19.5592C19.8014 12.5023 20 12.3037 20 12.0615V11.3495C20 11.1073 19.8014 10.9087 19.5592 10.9087Z" fill="white"/>
<path d="M2.32496 8.63106H4.07357V9.53685C4.07357 9.79842 4.28669 10.0067 4.54341 10.0067H5.36201C5.62358 10.0067 5.83186 9.79357 5.83186 9.53685V8.63106H7.41094C8.66063 8.63106 9.68267 7.61387 9.68267 6.35933V3.32227C9.68267 2.07258 8.66548 1.05054 7.41094 1.05054H2.32496C1.07526 1.05054 0.0532227 2.06773 0.0532227 3.32227V6.35933C0.0532227 7.61387 1.07042 8.63106 2.32496 8.63106ZM1.83574 3.32227C1.83574 3.05102 2.05371 2.83305 2.32496 2.83305H7.41094C7.68219 2.83305 7.90016 3.05102 7.90016 3.32227V6.35933C7.90016 6.63058 7.68219 6.84855 7.41094 6.84855H2.32496C2.05371 6.84855 1.83574 6.63058 1.83574 6.35933V3.32227Z" fill="white"/>
</svg>
