<svg width="20" height="20" viewBox="0 0 20 20" fill="none" xmlns="http://www.w3.org/2000/svg">
<path d="M19.9665 8.16725C19.9034 7.98603 19.7887 7.82685 19.6362 7.70903C19.4838 7.5912 19.3002 7.51979 19.1076 7.50344L13.4254 6.68111L10.8788 1.5589C10.797 1.39139 10.6694 1.25012 10.5104 1.15127C10.3515 1.05243 10.1676 1 9.98005 1C9.79245 1 9.60864 1.05243 9.44968 1.15127C9.29072 1.25012 9.16304 1.39139 9.08127 1.5589L6.53474 6.67121L0.852469 7.50344C0.667643 7.52951 0.493882 7.60645 0.350902 7.72553C0.207923 7.84461 0.101452 8.00108 0.0435705 8.17716C-0.00941244 8.34923 -0.014167 8.53236 0.0298169 8.70691C0.0738009 8.88146 0.164863 9.04083 0.293231 9.16792L4.41762 13.1309L3.41898 18.7585C3.38333 18.9442 3.40199 19.1362 3.47277 19.3117C3.54356 19.4873 3.6635 19.6391 3.81843 19.7492C3.96944 19.8563 4.14756 19.9195 4.33278 19.9318C4.518 19.944 4.703 19.9048 4.86701 19.8186L9.98005 17.1732L15.0731 19.8285C15.2133 19.9069 15.3716 19.9479 15.5325 19.9474C15.744 19.9481 15.9503 19.8822 16.1217 19.7591C16.2766 19.649 16.3966 19.4972 16.4673 19.3217C16.5381 19.1461 16.5568 18.9541 16.5211 18.7684L15.5225 13.1409L19.6469 9.17782C19.7911 9.05663 19.8976 8.89734 19.9542 8.71846C20.0108 8.53957 20.015 8.34844 19.9665 8.16725ZM13.8248 12.1303C13.7077 12.2427 13.6201 12.3818 13.5696 12.5355C13.5191 12.6892 13.5073 12.8528 13.5352 13.0121L14.2542 17.1633L10.4993 15.1818C10.3549 15.1055 10.1937 15.0656 10.03 15.0656C9.86629 15.0656 9.7051 15.1055 9.56062 15.1818L5.80573 17.1633L6.52475 13.0121C6.55265 12.8528 6.54084 12.6892 6.49036 12.5355C6.43988 12.3818 6.35226 12.2427 6.23514 12.1303L3.23922 9.15801L7.4435 8.55365C7.60528 8.53132 7.75907 8.46997 7.89139 8.37497C8.02371 8.27996 8.13052 8.15421 8.20247 8.00873L9.98005 4.23394L11.8575 8.01864C11.9294 8.16412 12.0362 8.28987 12.1686 8.38487C12.3009 8.47988 12.4547 8.54123 12.6165 8.56355L16.8207 9.16792L13.8248 12.1303Z" fill="white"/>
</svg>
