<svg width="22" height="24" viewBox="0 0 22 24"  xmlns="http://www.w3.org/2000/svg">
<path d="M20.9534 4.29091H0.997783C0.733155 4.29091 0.479365 4.40393 0.292244 4.6051C0.105123 4.80628 0 5.07913 0 5.36364V9.65455C0.00173566 10.3185 0.194446 10.9656 0.551713 11.5072C0.908979 12.0488 1.41331 12.4583 1.99557 12.6796V22.5273C1.99557 22.8118 2.10069 23.0846 2.28781 23.2858C2.47493 23.487 2.72872 23.6 2.99335 23.6H18.9579C19.2225 23.6 19.4763 23.487 19.6634 23.2858C19.8505 23.0846 19.9557 22.8118 19.9557 22.5273V12.6796C20.5379 12.4583 21.0423 12.0488 21.3995 11.5072C21.7568 10.9656 21.9495 10.3185 21.9512 9.65455V5.36364C21.9512 5.07913 21.8461 4.80628 21.659 4.6051C21.4719 4.40393 21.2181 4.29091 20.9534 4.29091ZM13.969 6.43636H15.9645V9.65455C15.9645 9.93905 15.8594 10.2119 15.6723 10.4131C15.4852 10.6143 15.2314 10.7273 14.9667 10.7273C14.7021 10.7273 14.4483 10.6143 14.2612 10.4131C14.0741 10.2119 13.969 9.93905 13.969 9.65455V6.43636ZM9.97783 6.43636H11.9734V9.65455C11.9734 9.93905 11.8683 10.2119 11.6812 10.4131C11.494 10.6143 11.2402 10.7273 10.9756 10.7273C10.711 10.7273 10.4572 10.6143 10.2701 10.4131C10.083 10.2119 9.97783 9.93905 9.97783 9.65455V6.43636ZM5.9867 6.43636H7.98227V9.65455C7.98227 9.93905 7.87714 10.2119 7.69002 10.4131C7.5029 10.6143 7.24911 10.7273 6.98448 10.7273C6.71985 10.7273 6.46606 10.6143 6.27894 10.4131C6.09182 10.2119 5.9867 9.93905 5.9867 9.65455V6.43636ZM2.99335 10.7273C2.72872 10.7273 2.47493 10.6143 2.28781 10.4131C2.10069 10.2119 1.99557 9.93905 1.99557 9.65455V6.43636H3.99113V9.65455C3.99113 9.93905 3.88601 10.2119 3.69889 10.4131C3.51177 10.6143 3.25798 10.7273 2.99335 10.7273ZM12.9712 21.4545H8.98005V19.3091C8.98005 18.7401 9.1903 18.1944 9.56454 17.792C9.93878 17.3897 10.4464 17.1636 10.9756 17.1636C11.5049 17.1636 12.0125 17.3897 12.3867 17.792C12.7609 18.1944 12.9712 18.7401 12.9712 19.3091V21.4545ZM17.9601 21.4545H14.9667V19.3091C14.9667 18.1711 14.5463 17.0797 13.7978 16.275C13.0493 15.4703 12.0341 15.0182 10.9756 15.0182C9.9171 15.0182 8.90194 15.4703 8.15346 16.275C7.40498 17.0797 6.98448 18.1711 6.98448 19.3091V21.4545H3.99113V12.6796C4.35789 12.5333 4.69621 12.315 4.98892 12.036C5.53772 12.5637 6.24819 12.8555 6.98448 12.8555C7.72078 12.8555 8.43125 12.5637 8.98005 12.036C9.52885 12.5637 10.2393 12.8555 10.9756 12.8555C11.7119 12.8555 12.4224 12.5637 12.9712 12.036C13.52 12.5637 14.2305 12.8555 14.9667 12.8555C15.703 12.8555 16.4135 12.5637 16.9623 12.036C17.255 12.315 17.5933 12.5333 17.9601 12.6796V21.4545ZM19.9557 9.65455C19.9557 9.93905 19.8505 10.2119 19.6634 10.4131C19.4763 10.6143 19.2225 10.7273 18.9579 10.7273C18.6933 10.7273 18.4395 10.6143 18.2523 10.4131C18.0652 10.2119 17.9601 9.93905 17.9601 9.65455V6.43636H19.9557V9.65455ZM3.29268 2.14545H18.9579C19.2225 2.14545 19.4763 2.03244 19.6634 1.83126C19.8505 1.63008 19.9557 1.35723 19.9557 1.07273C19.9557 0.788222 19.8505 0.51537 19.6634 0.314195C19.4763 0.113019 19.2225 0 18.9579 0H3.29268C3.02806 0 2.77427 0.113019 2.58715 0.314195C2.40002 0.51537 2.2949 0.788222 2.2949 1.07273C2.2949 1.35723 2.40002 1.63008 2.58715 1.83126C2.77427 2.03244 3.02806 2.14545 3.29268 2.14545Z" />
</svg>
