<svg width="20" height="20" viewBox="0 0 20 20" xmlns="http://www.w3.org/2000/svg">
    <g clip-path="url(#clip0)">
        <path d="M16.6087 7.87391C15.6862 7.87391 14.8015 8.24037 14.1492 8.89267C13.4969 9.54497 13.1305 10.4297 13.1305 11.3522C13.1305 12.8261 15.1 16.3261 15.9174 17.7174H13.974C13.8798 16.3116 13.3329 14.974 12.4151 13.905C11.4973 12.8359 10.258 12.0928 8.88265 11.787C9.71286 11.4778 10.4288 10.9224 10.9346 10.1951C11.4405 9.46776 11.7121 8.6033 11.7131 7.71739C11.7103 7.19916 11.6161 6.68549 11.4348 6.2H12.3609C12.4419 6.20056 12.5215 6.17847 12.5907 6.13622C12.6598 6.09397 12.7158 6.03323 12.7522 5.96087C12.7846 5.89138 12.798 5.81457 12.7912 5.73821C12.7843 5.66185 12.7574 5.58867 12.7131 5.52609L11.7566 4.22174L10.887 1.72609C10.8573 1.64124 10.8021 1.56768 10.7289 1.51551C10.6557 1.46334 10.5682 1.43514 10.4783 1.43478H3.91309C3.81137 1.43273 3.71216 1.46641 3.63271 1.52997C3.55327 1.59352 3.49863 1.68292 3.4783 1.78261L3.00004 4.2L2.02178 5.50435C1.97333 5.56894 1.94383 5.64575 1.93658 5.72617C1.92933 5.80659 1.94462 5.88744 1.98073 5.95966C2.01684 6.03188 2.07234 6.09261 2.14103 6.13506C2.20971 6.17751 2.28886 6.2 2.36961 6.2H3.30004C3.11527 6.68466 3.01954 7.19871 3.01743 7.71739C3.01805 8.62019 3.29967 9.5004 3.82323 10.2359C4.3468 10.9714 5.08632 11.5256 5.93917 11.8217C4.59329 12.1501 3.38695 12.8986 2.495 13.9586C1.60304 15.0187 1.07181 16.3352 0.978303 17.7174H0.347869C0.232557 17.7174 0.121968 17.7632 0.0404308 17.8447C-0.0411067 17.9263 -0.0869141 18.0369 -0.0869141 18.1522C-0.0869141 18.2675 -0.0411067 18.3781 0.0404308 18.4596C0.121968 18.5411 0.232557 18.587 0.347869 18.587H19.2174C19.3327 18.587 19.4433 18.5411 19.5249 18.4596C19.6064 18.3781 19.6522 18.2675 19.6522 18.1522C19.6522 18.0369 19.6064 17.9263 19.5249 17.8447C19.4433 17.7632 19.3327 17.7174 19.2174 17.7174H17.3044C18.1218 16.3261 20.087 12.8261 20.087 11.3522C20.087 10.4297 19.7205 9.54497 19.0682 8.89267C18.4159 8.24037 17.5312 7.87391 16.6087 7.87391ZM7.4783 14.5652C7.00314 14.5672 6.53903 14.422 6.14976 14.1495C5.76049 13.877 5.46517 13.4906 5.30439 13.0435C5.29263 13.016 5.27806 12.9897 5.26091 12.9652C5.96324 12.6593 6.72093 12.5009 7.487 12.5C8.25258 12.5013 9.00993 12.6581 9.71309 12.9609C9.69754 12.981 9.68441 13.0029 9.67395 13.0261C9.51309 13.4754 9.21766 13.8642 8.82789 14.1396C8.43812 14.4151 7.97294 14.5637 7.49569 14.5652H7.4783ZM10.1827 2.28261L10.4566 3.08261H4.11743L4.28265 2.28261H10.1827ZM3.75656 4.64348C3.7952 4.59201 3.82193 4.53261 3.83482 4.46956L3.93917 3.95217H10.7566L10.9566 4.54348C10.9716 4.58511 10.9921 4.62458 11.0174 4.66087L11.5087 5.33043H3.24787L3.75656 4.64348ZM3.887 7.71739C3.88952 7.19113 4.01142 6.67231 4.24352 6.2H10.487C10.7183 6.67065 10.8401 7.1875 10.8434 7.71189C10.8467 8.23627 10.7314 8.75462 10.5061 9.22816C10.2809 9.7017 9.95142 10.1182 9.54247 10.4464C9.13351 10.7747 8.65563 11.0062 8.14457 11.1237C7.6335 11.2412 7.10249 11.2416 6.59124 11.1249C6.07999 11.0082 5.60174 10.7775 5.19227 10.4499C4.78279 10.1223 4.45269 9.70631 4.22666 9.23313C4.00063 8.75995 3.88451 8.24178 3.887 7.71739ZM4.487 13.3696C4.68616 13.9142 5.03191 14.3933 5.4861 14.7539C5.9403 15.1145 6.48528 15.3426 7.06091 15.413V17.7261H1.84352C1.91095 16.8421 2.18535 15.9865 2.64456 15.2282C3.10377 14.4698 3.73491 13.8302 4.487 13.3609V13.3696ZM7.93048 17.7174V15.4C8.49623 15.3179 9.02956 15.0854 9.47469 14.7267C9.91983 14.3679 10.2604 13.8962 10.4609 13.3609C11.2124 13.8275 11.8438 14.464 12.3044 15.2191C12.7651 15.9743 13.0421 16.827 13.1131 17.7087L7.93048 17.7174ZM16.6261 8.74348C17.318 8.74348 17.9815 9.01832 18.4708 9.50755C18.96 9.99677 19.2348 10.6603 19.2348 11.3522C19.2348 12.4696 17.5957 15.5217 16.6261 17.187C15.6566 15.5217 14.0174 12.4739 14.0174 11.3522C14.0174 10.6633 14.2899 10.0024 14.7753 9.51367C15.2608 9.02494 15.9199 8.74807 16.6087 8.74348H16.6261Z"
        />
        <path d="M18.5566 11.5435C18.5566 11.1503 18.4399 10.766 18.2214 10.4391C18.0029 10.1123 17.6923 9.85761 17.329 9.70735C16.9656 9.55709 16.5659 9.518 16.1804 9.59502C15.7948 9.67204 15.4408 9.86171 15.1631 10.14C14.8854 10.4183 14.6965 10.7728 14.6203 11.1585C14.5441 11.5442 14.5841 11.9439 14.7351 12.3069C14.8862 12.6699 15.1415 12.9799 15.4689 13.1977C15.7962 13.4155 16.1808 13.5313 16.5739 13.5304C17.1002 13.5293 17.6044 13.3194 17.9761 12.9469C18.3478 12.5744 18.5566 12.0697 18.5566 11.5435ZM16.5739 12.6609C16.3528 12.6617 16.1363 12.5969 15.952 12.4747C15.7677 12.3524 15.6238 12.1782 15.5385 11.9741C15.4533 11.77 15.4305 11.5452 15.4732 11.3282C15.5158 11.1111 15.6219 10.9116 15.7779 10.7549C15.934 10.5982 16.1331 10.4913 16.35 10.4479C16.5669 10.4044 16.7918 10.4263 16.9962 10.5107C17.2006 10.5952 17.3754 10.7384 17.4984 10.9222C17.6213 11.1061 17.687 11.3223 17.687 11.5435C17.6859 11.8387 17.5684 12.1216 17.36 12.3308C17.1516 12.54 16.8692 12.6586 16.5739 12.6609Z"
        />
    </g>
    <defs>
        <clipPath id="clip0">
            <rect width="20" height="20"/>
        </clipPath>
    </defs>
</svg>
