<svg width="20" height="20" viewBox="0 0 20 20"  xmlns="http://www.w3.org/2000/svg">
    <path d="M19.4348 16.4348H16.2305C16.5511 16.0529 16.7307 15.5725 16.7392 15.0739H17.5653C17.6806 15.0739 17.7912 15.0281 17.8727 14.9466C17.9543 14.8651 18.0001 14.7545 18.0001 14.6392V5.17394C17.9989 4.51702 17.7374 3.88733 17.2729 3.42281C16.8084 2.9583 16.1787 2.69683 15.5218 2.69568H9.06093C8.40401 2.69683 7.77432 2.9583 7.3098 3.42281C6.84529 3.88733 6.58382 4.51702 6.58267 5.17394V6.41742H4.23049C4.16662 6.41731 4.10351 6.43129 4.04564 6.45834C3.98778 6.48539 3.93659 6.52486 3.89571 6.57394L1.16093 9.8522C1.13512 9.88583 1.11324 9.9223 1.09571 9.9609C1.07486 10.0043 1.06444 10.0519 1.06528 10.1V14.6392C1.06528 14.7545 1.11108 14.8651 1.19262 14.9466C1.27416 15.0281 1.38475 15.0739 1.50006 15.0739H2.76962C2.77811 15.5725 2.95771 16.0529 3.27832 16.4348H0.565276C0.449964 16.4348 0.339376 16.4806 0.257838 16.5622C0.1763 16.6437 0.130493 16.7543 0.130493 16.8696C0.130493 16.9849 0.1763 17.0955 0.257838 17.177C0.339376 17.2586 0.449964 17.3044 0.565276 17.3044H19.4348C19.5502 17.3044 19.6607 17.2586 19.7423 17.177C19.8238 17.0955 19.8696 16.9849 19.8696 16.8696C19.8696 16.7543 19.8238 16.6437 19.7423 16.5622C19.6607 16.4806 19.5502 16.4348 19.4348 16.4348ZM15.8696 15.0479C15.8696 15.311 15.7916 15.5682 15.6454 15.787C15.4992 16.0058 15.2914 16.1763 15.0483 16.277C14.8052 16.3777 14.5377 16.4041 14.2796 16.3527C14.0216 16.3014 13.7845 16.1747 13.5984 15.9886C13.4124 15.8025 13.2857 15.5655 13.2343 15.3074C13.183 15.0493 13.2093 14.7818 13.31 14.5387C13.4107 14.2956 13.5813 14.0878 13.8 13.9416C14.0188 13.7954 14.2761 13.7174 14.5392 13.7174C14.8917 13.7186 15.2294 13.8591 15.4787 14.1084C15.7279 14.3576 15.8685 14.6954 15.8696 15.0479ZM7.45223 5.17394C7.45223 4.74729 7.62172 4.33811 7.92341 4.03642C8.2251 3.73473 8.63428 3.56524 9.06093 3.56524H15.5218C15.7331 3.56524 15.9422 3.60685 16.1374 3.6877C16.3326 3.76854 16.5099 3.88704 16.6593 4.03642C16.8087 4.1858 16.9272 4.36314 17.008 4.55832C17.0889 4.75349 17.1305 4.96268 17.1305 5.17394V14.2044H16.5696C16.4025 13.8037 16.1205 13.4614 15.7592 13.2206C15.3979 12.9798 14.9734 12.8513 14.5392 12.8513C14.105 12.8513 13.6805 12.9798 13.3192 13.2206C12.9579 13.4614 12.6759 13.8037 12.5088 14.2044H7.45223V5.17394ZM4.43484 7.28698H6.58267V9.69568H2.42615L4.43484 7.28698ZM1.93049 10.5652H6.58267V13.5609C6.33602 13.2841 6.02266 13.0749 5.67238 12.9533C5.3221 12.8317 4.94655 12.8017 4.58142 12.8662C4.21629 12.9307 3.87372 13.0875 3.58628 13.3217C3.29884 13.5559 3.07609 13.8598 2.93919 14.2044H1.93049V10.5652ZM4.97397 13.7174C5.23711 13.7174 5.49433 13.7954 5.71312 13.9416C5.93191 14.0878 6.10244 14.2956 6.20313 14.5387C6.30383 14.7818 6.33018 15.0493 6.27884 15.3074C6.22751 15.5655 6.1008 15.8025 5.91473 15.9886C5.72867 16.1747 5.49161 16.3014 5.23353 16.3527C4.97545 16.4041 4.70794 16.3777 4.46484 16.277C4.22173 16.1763 4.01395 16.0058 3.86776 15.787C3.72157 15.5682 3.64354 15.311 3.64354 15.0479C3.64468 14.6961 3.78462 14.359 4.03293 14.1099C4.28125 13.8608 4.61788 13.7197 4.96962 13.7174H4.97397ZM7.16962 15.0739H12.3435C12.3508 15.5719 12.5288 16.0524 12.8479 16.4348H6.66093C6.97997 16.0524 7.15802 15.5719 7.16528 15.0739H7.16962Z"
         />
</svg>
