<svg width="17" height="17" viewBox="0 0 17 17" fill="none" xmlns="http://www.w3.org/2000/svg">
<path fill-rule="evenodd" clip-rule="evenodd" d="M5.11575 8C4.56347 8 4.11575 7.55228 4.11575 7V5H1C0.447715 5 0 4.55228 0 4C0 3.44772 0.447715 3 1 3H4.11575V1C4.11575 0.447715 4.56347 0 5.11575 0C5.66804 0 6.11575 0.447715 6.11575 1L6.11575 7C6.11575 7.55228 5.66804 8 5.11575 8ZM8.63998 3C8.0877 3 7.63998 3.44772 7.63998 4C7.63998 4.55228 8.0877 5 8.63998 5H15.9214C16.4737 5 16.9214 4.55228 16.9214 4C16.9214 3.44772 16.4737 3 15.9214 3H8.63998ZM15.9215 14C16.4738 14 16.9215 13.5523 16.9215 13C16.9215 12.4477 16.4738 12 15.9215 12H12.8058V10C12.8058 9.44771 12.3581 9 11.8058 9C11.2535 9 10.8058 9.44771 10.8058 10L10.8058 16C10.8058 16.5523 11.2535 17 11.8058 17C12.3581 17 12.8058 16.5523 12.8058 16V14H15.9215ZM8.63996 13C8.63996 13.5523 8.19224 14 7.63996 14L1.00016 14C0.447872 14 0.000156921 13.5523 0.000156879 13C0.000156838 12.4477 0.447873 12 1.00016 12L7.63996 12C8.19224 12 8.63996 12.4477 8.63996 13Z" fill="#ACACAC"/>
</svg>
