<svg width="30" height="27" viewBox="0 0 30 27" xmlns="http://www.w3.org/2000/svg">
<path d="M28.6831 24.222L28.6831 24.222C29.3056 23.1588 29.3056 21.8873 28.6831 20.8241L17.9808 2.5473C17.3584 1.48446 16.2429 0.85 15 0.85C13.7571 0.85 12.6416 1.48446 12.0192 2.5473L12.1486 2.6231L12.0192 2.5473L1.31693 20.8241C0.694357 21.8873 0.694355 23.1588 1.31693 24.2219C1.93936 25.2848 3.05483 25.9192 4.29772 25.9192H25.7022C26.9451 25.9192 28.0606 25.2848 28.6831 24.222ZM13.6988 3.50764L13.6988 3.50764C13.9701 3.04423 14.4553 2.76744 15 2.76744C15.5447 2.76744 16.0299 3.04423 16.3013 3.50764L16.4307 3.43185L16.3013 3.50764L27.0036 21.7845C27.0036 21.7845 27.0036 21.7845 27.0036 21.7845C27.2747 22.2476 27.2747 22.7985 27.0035 23.2617C26.7321 23.7251 26.2469 24.0019 25.7022 24.0019H4.29772C3.75297 24.0019 3.26775 23.7251 2.99643 23.2617C2.72524 22.7985 2.72524 22.2476 2.99643 21.7845L13.6988 3.50764Z"
     stroke-width="0.3"/>
<path d="M15.9611 9.07349V8.92349H15.8111H14.1707H14.0207V9.07349V17.1605V17.3105H14.1707H15.8111H15.9611V17.1605V9.07349Z"
     stroke-width="0.3"/>
<path d="M15.0045 19.3549C14.3207 19.3549 13.7609 19.9038 13.7609 20.5832C13.7609 21.2626 14.3207 21.8115 15.0045 21.8115C15.6883 21.8115 16.2482 21.2626 16.2482 20.5832C16.2482 19.9038 15.6884 19.3549 15.0045 19.3549Z"
     stroke-width="0.3"/>
</svg>
