<svg xmlns="http://www.w3.org/2000/svg" viewBox="0 0 338.9 118.3">
  <defs/>
  <linearGradient id="a" gradientUnits="userSpaceOnUse" x1=".02" y1="37.37" x2="14.12" y2="37.37" gradientTransform="matrix(1 0 0 -1 0 117.63)">
    <stop offset="0" stop-color="#999" stop-opacity="0"/>
    <stop offset=".4" stop-color="#999"/>
  </linearGradient>
  <path fill="url(#a)" d="M0 42.2l14.1 12.2v48.8L0 118.3z"/>
  <linearGradient id="b" gradientUnits="userSpaceOnUse" x1="-666.79" y1="711.28" x2="-653.69" y2="711.28" gradientTransform="matrix(-1 0 0 1 -354.06 -600.52)">
    <stop offset="0" stop-color="#999" stop-opacity="0"/>
    <stop offset=".4" stop-color="#999"/>
  </linearGradient>
  <path fill="url(#b)" d="M312.7 118.3l-13.1-15.1H312.7z"/>
  <linearGradient id="c" gradientUnits="userSpaceOnUse" x1="156.35" y1="-.68" x2="156.35" y2="14.42" gradientTransform="matrix(1 0 0 -1 0 117.63)">
    <stop offset="0" stop-color="#999" stop-opacity="0"/>
    <stop offset=".4" stop-color="#999"/>
  </linearGradient>
  <path fill="url(#c)" d="M0 118.3l14.1-15.1h285.5l13.1 15.1z"/>
  <linearGradient id="d" gradientUnits="userSpaceOnUse" x1="-664.64" y1="718" x2="-664.64" y2="730.4" gradientTransform="matrix(-1 0 0 1 -657.59 -675.98)">
    <stop offset="0" stop-color="#999" stop-opacity="0"/>
    <stop offset=".4" stop-color="#999"/>
  </linearGradient>
  <path fill="url(#d)" d="M14.1 42v12.4L0 42.2z"/>
  <path fill="#3C6292" d="M133.8 51.8c-5.4 0-9.7 2.1-12.9 6.2a17.5 17.5 0 00-3.8 11c0 4.4 1.5 8.3 4.5 11.8s7.2 5.2 12.5 5.2c2.4 0 4.5-.4 6.4-1.1s3.6-1.8 5.1-3.2c1.5-1.4 2.9-3.2 4-5.5l.2-.3-4.1-2.1-.2.3c-1.2 2-2.4 3.5-3.4 4.4s-2.3 1.6-3.8 2.2c-1.5.5-3 .8-4.6.8-3.2 0-6-1.2-8.2-3.4-2.1-2.2-3.3-5-3.4-8.4h27.1c.8 0 1.4-.6 1.5-1.4.1-4-1.4-7.4-3.5-10.1-3.4-4.3-7.8-6.4-13.4-6.4zm-11.2 13.5c.8-2.6 2-4.6 3.5-5.9 2.2-1.9 4.8-2.9 7.8-2.9 1.8 0 3.6.4 5.3 1.2 1.7.8 3 1.8 4 3.1.9 1.2 1.7 2.7 2.2 4.6l-22.8-.1zM172.4 51.8c-5.4 0-9.7 2.1-12.9 6.2a17.5 17.5 0 00-3.8 11c0 4.4 1.5 8.3 4.5 11.8s7.2 5.2 12.5 5.2c2.4 0 4.5-.4 6.4-1.1s3.6-1.8 5.1-3.2c1.5-1.4 2.9-3.2 4-5.5l.2-.3-4.1-2.1-.2.3c-1.2 2-2.4 3.5-3.4 4.4s-2.3 1.6-3.8 2.2c-1.5.5-3 .8-4.6.8-3.2 0-6-1.2-8.2-3.4-2.1-2.2-3.3-5-3.4-8.4h27.1c.8 0 1.4-.6 1.5-1.4.1-4-1.4-7.4-3.5-10.1-3.4-4.3-7.9-6.4-13.4-6.4zm-11.2 13.5c.8-2.6 2-4.6 3.5-5.9 2.2-1.9 4.8-2.9 7.8-2.9 1.8 0 3.6.4 5.3 1.2 1.7.8 3 1.8 4 3.1.9 1.2 1.7 2.7 2.2 4.6l-22.8-.1zM232.4 51.8c-5.4 0-9.7 2.1-12.9 6.2a17.5 17.5 0 00-3.8 11c0 4.4 1.5 8.3 4.5 11.8s7.2 5.2 12.5 5.2c2.4 0 4.5-.4 6.4-1.1s3.6-1.8 5.1-3.2c1.5-1.4 2.9-3.2 4-5.5l.2-.3-4.1-2.1-.2.3c-1.2 2-2.4 3.5-3.4 4.4s-2.3 1.6-3.8 2.2c-1.5.5-3 .8-4.6.8-3.2 0-6-1.2-8.2-3.4-2.1-2.2-3.3-5-3.4-8.4h27.1c.8 0 1.4-.6 1.5-1.4.1-4-1.4-7.4-3.5-10.1-3.5-4.3-7.9-6.4-13.4-6.4zm-11.3 13.5c.8-2.6 2-4.6 3.5-5.9 2.2-1.9 4.8-2.9 7.8-2.9 1.8 0 3.6.4 5.3 1.2 1.7.8 3 1.8 4 3.1.9 1.2 1.7 2.7 2.2 4.6l-22.8-.1zM270.9 51.8c-5.4 0-9.7 2.1-12.9 6.2a17.5 17.5 0 00-3.8 11c0 4.4 1.5 8.3 4.5 11.8s7.2 5.2 12.5 5.2c2.4 0 4.5-.4 6.4-1.1s3.6-1.8 5.1-3.2c1.5-1.4 2.9-3.2 4-5.5l.2-.3-4.1-2.1-.2.3c-1.2 2-2.4 3.5-3.4 4.4s-2.3 1.6-3.8 2.2c-1.5.5-3 .8-4.6.8-3.2 0-6-1.2-8.2-3.4-2.1-2.2-3.3-5-3.4-8.4h27.1c.8 0 1.4-.6 1.5-1.4.1-4-1.4-7.4-3.5-10.1-3.4-4.3-7.9-6.4-13.4-6.4zm-11.2 13.5c.8-2.6 2-4.6 3.5-5.9 2.2-1.9 4.8-2.9 7.8-2.9 1.8 0 3.6.4 5.3 1.2 1.7.8 3 1.8 4 3.1.9 1.2 1.7 2.7 2.2 4.6l-22.8-.1z"/>
  <path fill="#3A5E8B" d="M321.9 103.2H14.1V33.9h17.1v3.9H18.1v61.5h299.8V69h4z"/>
  <path fill="#E50012" d="M200.3 33.8h4v52.3h-4z"/>
  <path fill="#E50012" d="M116.9 33.8h170.9v4H116.9z"/>
  <path fill="#E51C2C" d="M52.3 86.1h-4V2c0-.9.6-1.6 1.4-1.9.8-.3 1.7 0 2.2.7l37.6 50.1-3.2 2.4L52.3 8v78.1z"/>
  <path fill="#E51C2C" d="M97.5 86c-.6 0-1.2-.3-1.6-.8L58.2 35.1l3.2-2.4 34 45.3V0h4v84.1c0 .9-.6 1.6-1.4 1.9h-.5z"/>
  <radialGradient id="e" cx="317.85" cy="88.94" r="27.23" gradientTransform="matrix(1.0077 0 0 -1 -6.53 117.63)" gradientUnits="userSpaceOnUse">
    <stop offset="0" stop-color="#189cc2"/>
    <stop offset=".19" stop-color="#1886ad"/>
    <stop offset="1" stop-color="#1a2e58"/>
    <stop offset="1" stop-color="#00394f"/>
  </radialGradient>
  <path fill="url(#e)" d="M338.9 34.6c0 9.4-7.6 17-17 17s-17-7.6-17-17 7.6-17 17-17 17 7.6 17 17z"/>
  <path fill="#78BB2C" d="M338.4 38.4c-.1 0 0 0-.1.1 0 .1 0 0 .1.1v-.2zm-21.5-18.8c-.1 0-.4.1-.4.1 0 .1-.3.1-.3.1H316.5c.1 0 0 0 .1.1H316.9c.2 0 .4-.1.7-.1h-.1c-.2 0-.4 0-.4-.1 0-.2.6-.4 1.1-.5.2 0 .2-.1.4-.1.1 0 .1-.1.2-.1.3-.1.5-.1.8-.1.2 0 .9-.1.9-.2h-.3c-.4 0-.8.2-1.3.2h-.2c-.2 0-.2 0-.3.1-.3 0-.6.2-.8.2-.1 0-.2 0-.3.1h-.1s.1 0 0 0c0 .1-.4.2-.5.2 0 .1.2.1.2.1zm.9.4s.2.1.3 0h.1c0-.1-.4-.1-.4 0zm-1.6-1.2zm1.7-.3c-.1 0-.4 0-.4.1h.2c0-.1.1 0 .2-.1.1.1.1 0 .2 0h-.2zm-.1 0h.2-.4c.1 0 .2-.1.4-.1h.1c-.1 0-.1 0-.1.1-.2 0-.2.1-.5.1h.1-.4.4c0-.1.2-.1.2-.1zm-.2 1.4zm-2.1-1h.2-.2.2-.2c.1.1.1 0 .2 0h.1c.1 0 .1 0 .2-.1.1 0 .2 0 .3-.1h.1c.1 0 .2 0 .2-.1h-.2c-.1 0-.2.1-.3.1-.3.1-.4.1-.6.2-.1 0-.4.1-.5.1h.2s.2-.1.3-.1zm.2 15.6c.1 0 .2-.1.2-.1-.1 0-.2 0-.2.1-.2 0-.1 0 0 0zm20.9 4.6s0-.1 0 0c.1-.1 0-.1 0-.2v.2s-.1 0-.1.1v.1c.1-.1.1-.1.1-.2zm-17.9-20.7s.1 0 .2-.1c-.1 0-.2 0-.2.1 0-.1 0-.1 0 0-.1-.1-.2-.1-.3-.1-.1 0-.2 0-.2.1.1.1.5 0 .5 0zm19.4 20.2c-.1-.1 0-.3-.1-.3v-.1c-.1 0 0-.1-.1-.1s-.2 0-.3-.1h-.2l-.1-.1h-.1c-.1 0-.1.2-.2.2s-.1.1-.1.1-.1.1-.1.2l-.1-.1c-.1 0-.1 0-.1-.1v-.3c-.1 0-.1-.1-.2-.1s-.1.2-.2.2c0 0-.1 0-.1.1s.1.1.2.2v.1h.1c.1 0 .1 0 .2-.1-.1.1-.2.1-.3.2 0 .1.1 0 .1.1v.2h.1c.1 0 .1-.1.1-.2v.1c.1-.1.1.1.2.1h.3c.1.1.2.1.2.2v.3s-.1.1-.1.2 0 .1.1 0h.1s0-.1.1-.1.1.2.2.2h.1v-.2c.1-.1.1-.2.2-.2s.2.1.2.3c0 .1 0 .1.1.1 0-.1 0-.2.1-.2v-.2-.2c-.3-.3-.2-.3-.3-.4.1-.1.1 0 0 0zm-5.3 1.7c0-.1 0-.1 0 0 .1-.1.1 0 .2 0l.1-.1c-.1 0 0 0-.1-.1-.1 0-.1.1-.2 0 0 0 0-.1-.1-.1s-.2 0-.3-.1l.3-.1h-.1c-.1 0-.2 0-.2.1-.1 0-.2-.1-.4-.1-.1 0-.1.1-.3.2-.3 0-.4-.3-.6-.2l-.1.1h-.1l-.2.2c.1 0 .2.1.3.2.1.1.2 0 .3 0h.5c.1 0 .1.1.2.1.2-.2.5-.2.8-.1zm-17.3-19.9h-.1l-.1.1h.1c.1 0 .2-.1.4-.1h-.3zm-7.7 4.7c.1 0 .1-.1.1-.2v-.1c-.1.1-.1.2-.1.3 0-.1 0-.1 0 0 0-.1 0-.1 0 0-.1 0-.1 0 0 0-.1 0-.1 0 0 0-.1 0-.1 0 0 0zm15.6 11.1c0 .2.1.3.3.3.2 0 .4-.3.4-.5 0-.4-.3-.5-.5-.8 0 .4-.2.6-.2 1zm12.5 4.3c0-.1 0-.1 0 0 .1 0 .1-.1.1-.1-.1 0-.1 0-.2.1 0-.1 0 0 .1 0zm.4-11.3s-.1 0 0 0c-.1.1-.1.1 0 .2v.1c.1 0 .1-.1.1-.1s0 .1.1.1.1-.2 0-.2c-.1-.2-.1-.1-.2-.1zm-.2 9.3c0-.1-.1-.1-.1-.1h-.4v.1h.2c.1 0 .2.1.3 0zm.1-9.1c0-.1 0-.1-.1-.1v-.1c-.1 0-.1-.1-.2-.1l-.2.1s0 .1.1.1h.1v-.1s0 .1.1.1v.2s0 .1.1.1v.1c0 .1 0-.1.1-.3-.1 0 0 0 0 0zm-.5 7.7c0 .1-.1.1-.1.2V37.6s0 .2.1.2c0-.1 0-.1-.1-.1v-.1h.1v-.1l.1-.1c-.1-.1-.1-.2-.1-.3zm.6-8.3c-.1 0-.2.1-.3.2h-.1.5s0-.1 0 0c.1 0 .1.1.2.1v.2s0 .1.1.1c0-.1 0-.2.1-.1l-.1-.1c.1 0 .1.1.2.2.1 0 0 0 .1-.1 0-.1 0-.1.1-.1v.1c.1 0 0-.1.1-.1v-.1-.2c0-.1-.1-.3 0-.3v-.2c0-.1-.1-.2-.1-.2v-.1l-.1-.1v.1c-.1.1 0 0-.1 0s-.1.1 0 .2v.1c0 .2-.1.4-.1.4-.1 0 0 .1-.1.1v-.1s0 .1-.1.1 0 .2-.1.2c0-.2-.1-.3-.2-.3zm.7-1.7c0 .1 0 .1 0 0 .1.1.1.4 0 .3 0 0-.1.1 0 .1v.2c0-.1.1 0 .1-.1l-.1-.1c0-.1.1 0 .1 0l.2.2c0-.1 0-.2.1-.1 0-.1-.1-.2-.1-.2-.1 0-.2-.2-.3-.3zm0 .4zm0-.5c.1 0 0-.1 0 0 0-.2 0-.2-.1-.3v.2c.1-.1.1 0 .1.1zm-7.5-7.5c-.1 0-.1 0-.2-.1-.1 0 0 .1.2.1-.1 0 0 0 0 0zm-2.7-.4s.1 0 0 0c.2.1.2.1.2 0h-.1-.1zm-.9-.6h-.2c0 .1.1.1.2 0 .1.1.3.1.3.1s-.2 0-.3-.1zm-.1-.1h-.3.3zm1 .3h-.6c.1 0 .3.1.4.1.3 0 .5.1.9.2h.1-.1.1c-.1-.1-.1-.1-.3-.1h-.2c-.1 0-.1 0-.2-.1h-.2.2c-.1 0-.3-.1-.5-.2-.4-.1-.5 0-.8 0 .2.1.4.1.6.1.3-.1.5 0 .6 0zm-7.6-.4c.1 0 .4-.1.4-.1s-.1 0-.1-.1c-.1 0-.4 0-.5.1.1.1.1.1.2.1zm11.6 2s-.1-.1-.2-.1h-.1s.1.1.2.1h.1s-.1 0 0 0c0 0 0 .1 0 0 0 .1 0 0 0 0zm-3.1-1.2l.1.1h.7c.1 0 .5.1.5.1s-.3-.2-.4-.2h-.1c.1 0 0 0 0 0h-.1c-.3-.1-.3 0-.5 0-.1 0-.2-.1-.2 0zM315 42.3c-.1-.2-.1-.8-.4-.9v.3c-.1.1-.4.4-.6.5-.3.1-.6.1-.5.5 0 .1.2.4.2.5l-.1.4-.1.1c0 .1 0 .2.1.3v.2c0 .2.2.5.5.5.5.1.5-.4.7-.8.1-.4.3-.8.3-1.5 0 0 .1 0 .2.1-.3-.1-.3-.2-.3-.2zm18.6-6.8c.2-.1.3-.2.4-.4.1 0 .1 0 .1-.1 0 0 .1 0 .1-.1 0 0-.1 0-.1-.1 0 0 0 .1-.1.1 0 .2-.3.4-.4.6zm.8-1.3c-.1 0 .1.3.1.3s.1-.1.1-.2-.1-.1-.2-.1zm.2 4.6l-.1-.1v-.1s-.1-.3-.1-.4c.2 0 .2-.2.4-.3v-.1l-.4.2s0 .1-.1.1-.1-.2-.1-.3c0-.2.1-.2.2-.2s.2 0 .3-.1h.2c.1 0 .2-.2.2-.3v-.1l-.2.2h-.1c-.2 0-.3 0-.5-.1-.2 0-.3.3-.3.5l-.1.1c-.1.2-.1.3-.2.5 0 .1.1.1.1.1v.4l.1.1c.1 0 .1-.3.1-.4v-.3c0-.1.1-.1.1-.1h.1v.2c0 .1.1.1.1.3v.1h.1c.1.2.2.2.2.1zm-.3 1.3c.1-.1.2-.1.2-.2l-.2.2c-.1-.1-.1-.1-.3-.1-.1 0-.1 0-.1.1s.1.1.1.1c.2-.1.2-.1.3-.1zm.1-9c-.1 0-.3.3-.3.5 0 .1 0 .3.1.3.3 0 .4-.8.2-.8zm.5 3.7c0-.1-.1-.1-.2-.1v.4c0-.1.2-.2.2-.3zm-.2-.6s-.1 0 0 0c-.1 0 0 0 0 0zm.3.4s.1.1 0 0c.1 0 0 0 0 0 0-.1 0-.1-.1-.1v.1c.1 0 .1-.1.1 0zm-6.3 3.2s-.1 0 0 0c-.1 0-.1 0 0 0 0 .1.1.2.1.2.1 0-.1-.2-.1-.2zm2.1.6c-.1 0-.2.1-.2.1 0 .1.1 0 .2.1 0 0 0 .1.1.1l.1.1h.1v-.1c-.2.1-.2-.1-.3-.3zM335 35c0-.1 0-.1 0 0-.1-.1-.2.1-.2.1h-.1l.1.2v-.1c.1-.1.2-.1.2-.2zm-6 3.4c-.1.1 0 .3.1.3 0-.1 0-.2-.1-.3zm1.7 1.1c0-.1 0-.2.1-.3v-.4c0-.1-.1-.1-.2-.2s-.2-.1-.2-.4c-.1 0-.2 0-.2-.1V38s0-.1-.1-.1h-.1c0-.2-.2-.2-.3-.2-.3-.1-.4-.2-.5-.4-.1-.1-.1-.2-.3-.3h-.1c-.1-.2-.1-.3-.4-.4h-.3c-.1 0-.1-.1-.2-.1h-.1v.1c0 .1.2.4.3.4.1 0 .2 0 .2.1.1.1.1.2.1.3.1.1.3.1.3.3 0 .1.1.3.1.3h.2v.1s.1.2.2.2l.3.6c.2.2.3.2.5.4l.2.2c.3.2.5.1.5 0zm4.9-3.7c0-.1-.1-.6-.1-.6s0-.1-.1-.1v.2s-.1 0-.2.1c0 0-.1 0-.1.1-.1 0 0-.1-.1-.1s-.1.2-.3.2c0 .1-.1.1-.1.2v.1s-.1.2 0 .2.1-.3.2-.4c0 0 0 .1.1.1h.1v-.1h.1v.2c0 .2.1.3.1.3h.1v.1c.1 0 .1-.1.1-.1 0-.1-.1-.1-.1-.2 0 0 0-.1.1-.1v.1s0 .2.1.2c0-.2.1-.3.1-.4zm-.2 2.9l.1-.1c0-.1-.2-.1-.2 0 0 0 0 .1.1.1zm-.8 1.7c.1 0 .2-.1.2-.2v-.1c.1 0 .3-.1.4-.3-.1 0-.3 0-.4.1v.1c0 .1-.2.1-.2.4zm2.9 0c-.1-.1 0-.2 0-.3v-.4c-.1.1-.1.2-.2.3 0 .2-.1.4-.1.6-.1.2-.2.6-.3.6-.1 0-.1-.1-.1-.1-.1 0-.2 0-.3-.1v-.1h-.1c0-.1.1-.2.1-.4 0-.1.1-.1.1-.2s0-.1-.1-.1-.1.1-.1.1c-.2 0-.3 0-.4-.1 0 .1.1.1.1.1l-.1.1c-.1 0-.3.1-.3.2s-.1.2-.1.3v.2h-.1c-.1 0-.1.1-.1.1 0-.1 0-.3-.1-.2-.1 0-.2.2-.4.2 0 .2-.2.2-.2.4h-.1c0 .1 0 .2-.1.3 0-.1-.1-.1-.1-.1-.1 0-.1.1-.1.2v.1c0 .3-.6.6-.9.7-.1.1-.4.1-.5.2l-.4.4v-.1s-.1 0-.1.1 0 .3-.1.4v.5l-.1-.1s0 .1-.1.1c-.1.1.1.1.1.2.1.3 0 .3.1.6 0 .1.1.2 0 .4 0 .1-.2.2-.2.3s.3.1.4.1c.3-.1.5-.3.7-.4.1 0 .1-.1.2-.1.1-.1.3-.1.4-.2.2-.3.5-.4.8-.6.1-.1.2-.2.4-.3.2-.1.4-.1.5-.1v.2c.9-1.2 1.7-2.5 2.2-3.9v-.1c0-.1.1-.3 0-.3-.1.3-.1.3-.2.3zm-6.2-1.6s0 .1.1.1l.1-.1c-.1 0-.1-.1-.2 0 0-.1 0-.1 0 0 0-.1 0 0 0 0zm-22.1-10.2h-.4.4zM334 40.5s0-.1 0 0c.1-.2 0-.1 0-.3h-.1c-.1 0-.1 0-.1.1s.1.1.2.1c-.1 0-.1.1 0 .1zm-25.1-16.3s0-.1 0 0c0-.1 0-.1 0 0l.1-.1c-.1 0-.1 0-.1.1 0-.1 0-.1 0 0-.1 0-.1 0 0 0zm-1.5 4.1c-.1 0-.1.1-.2.1s-.1-.1-.2 0h.1c.1 0 .1.1.2.1v-.1-.1c0 .1 0 .1.1 0zm3.1.2c.1 0 .2-.1.3-.1v-.1s.1 0 .1-.1c-.1 0-.3.1-.4.3-.1-.1 0 0 0 0zm18 4.6c0 .1 0 .1.1.2 0 0 .1 0 .1.1.1.2-.1.4.1.4 0 .3.2.8.2 1.2 0 .1-.1.3 0 .4 0 .1-.1.3-.1.4v.1c.1.1 0 0 .1 0 .2 0 .2.3.3.5.1.2.1.4.2.7s.4.6.7.7c0 0 .1.1.2.1h.2c0-.1 0-.1-.1-.3 0-.1-.2-.2-.2-.3v-.2c0-.5-.5-.5-.8-.8-.1-.1-.1-.2-.1-.3 0-.3-.3-.2-.3-.5s.2-.4.2-.7c0-.1.1-.2.1-.3 0 0 0-.1.1-.1s.2 0 .2.1v.1c.2.1.3.1.4.2.1.1 0 .3.2.3 0 .2.2.2.3.2 0 0 0 .1.1.2v.1s0 .2.1.2c0 0 .2-.2.2-.3v-.1.1c.1 0 .1-.2.2-.2.2-.1.3-.2.5-.3 0-.2.1-.3.1-.5 0-.3-.2-.7-.4-.9-.2-.2-.3-.4-.5-.7 0 0-.1-.1-.1-.2 0-.4.4-.5.6-.8.2.1.1 0 .3.1 0 0 .2.4.3.4.1 0 0-.1.1-.2s.2-.1.3-.1c.2-.1.4 0 .5-.1l.1-.2h.1c.4 0 .5-.2.7-.4.1 0 .1-.1.1-.2.2 0 .2-.3.3-.5 0-.1.2-.4.3-.4 0-.2.1-.3.1-.5 0-.4-.1-.4-.3-.6 0 0 0-.1-.1-.2v-.2c-.1 0-.2-.1-.2-.2s.2-.1.2-.2c0-.2.3 0 .4-.1-.1-.1-.2 0-.3-.1-.1 0-.1-.2-.2-.2s0 .2-.1.2h-.2c-.1-.1-.1-.2-.2-.3l-.2-.1c0-.1.2-.1.3-.1.1 0 .2-.1.3-.2 0 0 0-.1.1-.1s.1.1.2.1c0 .1-.1.1-.1.2.2 0 .3-.1.5-.1.1 0 .1.1.2.1v.1c0 .1-.1 0-.1.1 0 0 0 .1.1.1h.1c.1 0 .2.2.2.3s0 .1-.1.1v.1s0 .1.1.1c0 0 0 .1.1.1v.4h.1l.1-.1c0-.1.1-.1.2-.1s.1-.1.1-.3c0-.3-.2-.6-.3-.7-.1-.1-.1-.1-.1-.2h.2c0-.1.1-.1.1-.1.1-.1.2-.3.3-.4 0 0 .1.2.2.2.3.1.4-.5.5-.6 0-.1.1-.2.1-.3v-.3c-.1-.3-.3-.5-.5-.8-.2-.1-.4-.3-.4-.3s0-.1.1-.2a18.5 18.5 0 00-3.9-4h-.1c.1 0 .1 0 0 0 0 0-.1-.1-.2-.1s-.3-.1-.4-.1c-.2-.1-.3-.1-.5-.1-.2-.1-.3-.1-.4-.2-.6 0-1.1-.2-1.1-.2.1 0 1.3.2 1.4.1 0-.1 0-.1-.1-.2h-.1c-.1 0-.2-.1-.3-.2-.3-.1-.5-.1-.8-.2-.1-.1-.3-.2-.6-.3-.4-.1-.5-.1-.7-.1-.1 0-1.1 0-1.1-.1-.3 0-1.4-.1-2 0-.1 0 0 .1 0 .2h-.3c-.2 0-1-.1-1.3 0-.1 0 .1.1.1.1s.6.1.6.2l-.6-.1c-.1 0-.3-.1-.5-.1s-.4.1-.7.1c0 0 .3 0 .3.1 0 0 .4.1.3.1s-.7-.1-.7-.1c-.1 0 .1-.2 0-.2 0 .1-.3.2-.5.2.1.1.3.1.1.3 0 0 0 .1.1.1s.4-.1.6 0c0 0 .3.1.4.1s0 .1-.1.1c0 0-.2-.1-.3-.1h-.6c0 .1.1.2-.1.2 0 0-.1.1-.2.1-.1.1-.4.1-.5.1s0-.1 0-.1.3-.1.3-.2l.1-.1-.2-.1v-.3c0-.1-.2-.1-.2-.1 0-.1.6-.2-.1-.2h-.2.2-.2c-.1 0-.1 0-.1.1h-.2c-.1 0-.2.2-.3.2-.1.1-.2 0-.3.1-.1 0 .1 0 .1.1s-.1.1 0 .1.3 0 .4.1c.2.1.1.2-.1.2-.1 0-.3-.1-.4-.1-.3 0-.6-.1-.8-.1-1.2 0-.7.2-.8.2-.6.2-.2-.1-.4 0-.3 0-.9.3-1.3.3 0 0 .3-.1.2-.1-.2 0-.6.1-1.1.3-.2.1-.3.1-.4.1-.2.1-.1.2-.5.2-.1 0-.3 0-.3-.1l.4-.1c0-.1-.4-.2-.6 0 0 0 .1 0-.1.2 0 0 .1 0 .1.1s-.3.1-.4.1v-.1c-.2.1-.5.3-.6.3s0 .1 0 .2c-.1 0-.4.1-.8.1 0 .1 0 .1.1.1h.2c-.2 0-.3.1-.4.1h-.2V22c0-.1-.1-.1-.2-.1.3-.1.5-.1.8-.2.4-.1 1.3-.5.1-.4-.4 0-.5 0-.8.1 0 0-.2 0-.3.1l-.2.1h-.1c.2-.1.2-.1.3-.2h-.2c-.1 0-.1 0-.1.1-.1 0-.1 0 0 0-.1.1-.2.1-.3.2-.1.1-.1.1-.2.1-1.1.9-2.1 2-2.9 3.1 0 0-.1.2 0 .2l.3-.3c.1 0 .1 0 .2-.1 0-.1.2-.1.2-.2h-.1c0-.1.1-.2.2-.3.1 0 .2-.2.3-.2 0-.1 0-.1-.1-.1v-.1c.1-.1.1-.1.1-.2.1-.1.2-.1.3-.2.1-.1.4-.3.5-.4v-.1c0-.1.2-.2.4-.3.1-.1.3-.1.3 0s-.3.3-.4.3c-.2.1-.2.2-.4.3 0 0-.1.1-.1.2v.1l-.1.1c0 .1.1.1.2 0h.1c.1 0 .2 0 .3-.1.1 0 .2-.1.3-.2.1 0 .3-.1.3 0-.1.1-.2.2-.3.2-.1 0-.3 0-.5.1-.1 0-.6.4-.5.4s.2-.1.3 0c.1.1-.1.2-.1.2h-.2c-.1 0-.3.3-.3.4l-.3.3c-.1 0-.1.1-.2.1v-.1c-.1 0-.1 0-.2.1-.1 0-.2.1-.2.2-.1.1-.1.1-.2.1l-.1.1h-.1v-.1c-.1 0-.2.2-.3.2-.5.8-1 1.6-1.3 2.5h.1c.1 0 .2-.2.2-.2l.1-.1c.2-.1.2 0 .2.2l.1.1c.1.1.1.1.2.1h.1l.2.2v.1c0 .1-.1.2-.1.2h.1c.1 0 .1-.1.2-.2l.1-.1v-.1c0-.1 0-.1.1-.2h.2c0-.1-.1-.2-.2-.2 0 0-.2 0-.1-.1-.1 0-.1.1-.2.1s-.1-.1-.1-.2 0-.1-.1-.1-.1 0-.1-.1v-.1c0-.1.1-.1.2-.2v.1c.1 0 .1 0 .2-.1 0 .1.1.3.2.3h.1c0 .1.1.1.1.1.1 0 .2.1.2.2v.2c0 .1-.1.1 0 .2.1 0 .1.1.1.2v.1h.1s-.1.1-.1.2.1.3.2.3h.1c-.1 0 0-.1 0-.2v-.2l.1.2c0-.1.1-.1.1-.2v-.1c-.1 0-.2-.1-.2-.1v-.1c-.1 0-.1-.1-.1-.1s0-.1.1-.1.1.1.2.1V28c.1 0 .1-.1.2-.1h.2c.1 0 .1 0 .2-.1.1 0 .2-.1.3-.1h.1c0-.1-.2-.1-.2-.2s.2-.2.2-.3V27l.1-.1c0-.1.1-.1.2-.1v-.1c.2-.1.2-.3.4-.3.1 0 .2.1.4 0l-.2.1c.1.1.2.2.3.2.1 0 .5-.2.6-.3h-.2s-.1 0-.1-.1l.8-.4s-.1.1-.2.1c0 0 .2.2-.3.3.2.3 1.1.2 1 .7-.1.1-.3.2-.4.2-.2 0-.3 0-.5.1-.1 0-.4 0-.4-.1-.2 0-.2-.1-.4 0-.1 0-.4.1-.5.1-.1.1-.2.2-.3.2h-.2s-.2 0-.2.1v.1c-.1.1-.7.1-.8.3h.1v.1c0 .1-.1.1-.2.2.1 0 .2.1.2.2-.1.1.1.2.1.2l-.1.1h.1c.1-.1.2.1.3.1.1 0 .1-.2.3-.2.2 0 .3.2.4.2.2 0 .3-.1.4-.3 0 0 .1.1.2 0 .1 0 .1-.1.2-.1v.1s-.1 0-.1.1v.4c0 .2-.2.3-.2.4-.1.2-.1.3-.2.5 0 0-.1 0-.1.1v.1-.1h-.2c-.2 0-.3-.1-.5 0-.2 0-.1.1-.4.1s-.6-.1-.8-.1h-.3s-.1-.1-.1-.2h-.1c-.2.1-.4.1-.4.4v.2l-.1.1c-.4.1-.6-.4-.9-.3h-.1c-.1 0-.2-.1-.2-.3 0-.1.1-.2.1-.3v-.1c0-.1.1-.1.1-.2 0 0 0 .1-.1.1s0-.1-.1-.1-.1.1-.2.2h-.1c-.1 0-.1.1-.2.2h-.1c-.1 0-.2.1-.3.3-.5 1.6-.9 3.4-.9 5.2 0 .6 0 1.2.1 1.8h.1c.1 0 .1-.1.1-.1.1-.1.3-.2.5-.2s.1.5.2.5h.2c.2 0 .2.2.3.4v.5s-.1.2-.1.3c0 .4.3.8.5 1.1.1.2.1.3.1.5.1.2.1.3.2.7 0 .2.1.3.1.4.1.4-.2.5-.1 1s.3.8.5 1.1c.1.1.1.2.2.3v.2c.2.6.4.9.6 1.1.1.1.2.4.4.7 0 .1.1.1.1.2.1.1.1.2.1.3l.2.2c.2.1.2-.1.4 0 .1 0 .1.1.2.1h.2c0-.1.2 0 .3 0 .2-.1.3-.2.4-.4.1-.1.2-.1.3-.2.1-.1.2-.2.1-.4 0-.1-.1-.1-.1-.2.1-.2-.1-.2.2-.2h.3c.1-.1 0-.4 0-.5-.1-.3-.2-.3-.3-.5 0-.1.1-.2.2-.2 0-.5 1.1-.3 1-.9 0-.1 0-.1-.1-.2 0-.2 0-.4-.1-.6V41.8c0-.2-.4-.4-.4-.7s-.2-.5-.2-.8.2-.3.3-.5c.1-.3.3-.3.5-.5.1-.1.1-.4.2-.5.2-.2.5-.3.7-.5.3-.3.4-.5.7-.9.2-.3.7-1.1.7-1.7 0 0 0-.1-.1-.1-.4.1-.6.3-1 .3h-.4c-.1 0-.1.2-.3.2-.2 0-.3-.3-.4-.4.1-.1 0-.1 0-.3-.3 0-.4-.4-.5-.5-.2-.1-.3-.1-.4-.3-.2-.2-.1-.4-.2-.6-.1-.2-.3-.4-.4-.6v-.5c-.1-.1-.3-.3-.3-.5l-.6-1.5v-.1c.1.1.2.5.4.5 0-.1.1-.3.2-.5 0 .1-.1.2-.1.3l.1.2c.1.1.2.2.3.4 0 0 .1.1.1.2v.2h.2l.1.1c0 .2.2.2.2.4 0 .4.1.5.4.6 0 .2.2.5.3.6.1.1.3.2.3.4 0 .1-.1.3 0 .3 0 .2 0 .4.1.5s0 .1 0 .1l.3.1h.1c.2 0 .2-.2.4-.3h.4c.1-.1.5-.3.6-.4.2-.1.5-.1.7-.2v-.1c0-.2.6-.3.8-.3 0-.1.2-.3.3-.3.2 0 .1-.3.3-.3.1 0 .1-.2.2-.3 0-.1.1-.2.3-.2 0-.2.4-.3.4-.6 0-.1-.1-.1-.2-.2-.1 0-.1-.2-.2-.2-.3-.1-.5-.1-.6-.4V31c-.4.3-.4.7-1.1.7-.2 0-.4-.1-.4-.2s.1-.2.1-.3v-.1c-.1 0-.1.1-.2.2 0-.1-.1-.1-.1-.2-.2 0-.5-.4-.5-.7v-.2c0-.1.1-.3.2-.3.3 0 .5.3.6.5v.2c.1.1.3 0 .4.1l.3.3h.5l.2-.2c.2 0 .2.3.3.4 0 0 .3.1.4.1.3 0 .7.1.9.1H318.2l.1-.1c.1 0 .2 0 .3.1.1 0 .2-.1.4-.1h.3c.1 0 .2.3.3.4.1.1.4.3.6.3h.2l-.1.1h-.3c.2.1.3.5.6.5s.3-.2.5-.4h.1l-.1.1c0 .1.1.2.1.4 0 .1 0 .1-.1.3v.1c0 .2.1.4.2.6.1.2.2.5.2.7 0 .1 0 .2.1.3s0 .2.1.4c0 .1.2.2.2.3.1.2.2.4.3.7l.1.1c0 .1.1.1.2.1s.1-.1.1-.2c.1-.1.1-.1.2-.1s0-.3.2-.3h.2c0-.1 0-.2-.1-.3 0-.2.1-.3.1-.6 0-.2-.1-.4-.1-.6 0-.2.2-.2.4-.2.1 0 .2-.1.3-.2l.6-.6c.2-.2.5-.2.7-.4.1-.1.1-.2.1-.4 0-.1.2 0 .3-.1.1.1.1.1.3.1.3 0 .6-.1.6-.4.2 0 .3.1.4.2 0 .1 0 .3.1.4l.3.3c.1.2.2.2.3.4l.1.1v.3c0 .1 0 .2.1.2.5-.4.6-.7.8-.8zM313 26.4zm0-.1zm2.2-.6c.2.2.4.2.4.5.1 0 .3-.1.3-.1 0 .1.2.2.2.3h-.3c-.1 0-.2.2-.2.3.2 0 .3.1.3.2V27.5c-.1 0-.3.1-.5.1h-.4l-.1-.1c-.1 0-.2-.1-.3-.1-.1-.1 0-.1 0-.2 0 0-.1 0-.1-.1h.1c.1-.1.1-.3.3-.3-.2-.1-.6-.4-.6-.7 0-.1-.2-.1-.2-.2l.2-.3s.3-.1.4-.1c.2-.1.4-.2.7-.2.5-.1.6.1.8.3-.2.1-.3 0-.5 0-.3 0-.6.2-.7.2 0-.1.1-.2.2-.1zm-8.5 2.1s.1-.2.1-.3v-.1s0 .1-.1.1c0 .1-.1.3 0 .3zm-.2.4c0 .1-.1.2 0 0 .1.1.1 0 .2-.1v-.3c-.1 0-.1.1-.1.1v.1c0 .1 0 .2-.1.2zm28.9 6.3h-.2-.1c0 .1.2.1.1.2h-.1s0 .1.1.1v.1h.1v-.2h.1v-.2s0 .1 0 0c0 .1 0 .1 0 0zm-.8-1.6c0-.1 0-.1 0 0h-.1c-.1 0 0-.2-.1-.2s-.1.1-.1.2v.3c0 .1 0 .2-.1.3-.1 0-.1.2-.1.3 0 0 .1.2.2.2l.1-.1v.1s0 .1-.1.1l.1.1h.1c.1 0 .1.2.2.2v-.2c0 .1.2.2.2.3v0c-.1 0-.1 0-.1-.1h-.1s0-.1.1-.1c0 0 0 .1-.1.1l-.1-.2s-.1 0-.1.1c-.1 0-.2-.3-.2-.4 0-.2.1-.2.2-.4.2-.4.1-.5.1-.6zm.4 2.3c0-.1.1-.2.2-.3h-.1c0 .1-.1.2-.1.3zm0 0s.1.1 0 0c.1 0 .2 0 .2-.1h-.1l-.1.1zm-1.6 3.2c0-.1.1-.3.2-.3 0-.2.1-.2.1-.4v-.1h.1c.1 0 .1 0 .2-.1-.1 0-.3-.4-.3-.6 0 0 0-.1.1-.1v-.1l.2-.1c0-.1.2 0 .2-.1 0-.2-.3-.1-.3-.3 0-.1 0-.2-.1-.2s-.3.4-.4.5c0 .1-.2 0-.3.1 0 0 0 .1-.1.1l-.1.1-.1.1c-.1.1-.1.2-.2.2s-.2 0-.2.1c-.1.1-.1.4-.4.4-.1 0-.3-.1-.3.1l.1.4s.1 0 .1.1c.1.2-.1.5.3.5.1 0 .1-.1.2-.1v.1h.1c.1 0 .1-.1.2-.1s.2.1.3.1c0 0 0 .1.1.1s.1-.1.3-.2c-.1.1 0-.1 0-.2zm.2 1.6c0 .1 0 .1 0 0-.1.1-.1 0-.2.1-.1 0-.1 0-.1.1 0 0 .1.1.1 0 .1 0 .1 0 .2-.2l.1.1h.1V40h-.2zm-.4.1s-.1 0 0 0c-.1 0-.1.1 0 0-.1.1 0 .2 0 .2v-.2zm-1.1-7.6l-.1-.1c-.1 0-.4.2-.4.2v.1c0 .1.1.2.2.2.1-.1.3-.3.3-.4z"/>
</svg>
